<svg xmlns="http://www.w3.org/2000/svg"><defs><font id="american_typewriterregular" horiz-adv-x="1304"><font-face units-per-em="2048" ascent="1638" descent="-410"/><glyph unicode="ﬁ" horiz-adv-x="1228" d="M35 59q0 76 78 76 10 0 34-4 33-10 54-10 51 0 55 137 0 27 2 139 0 70 2 146 2 66 2 71v213q0 33-6 41.5t-35 8.5h-94q-74 0-74 67 0 68 74 68h88q35 0 44 6t9 31q10 367 387 366 156 0 256.5-60.5T1012 1198q0-104-105-104-45 0-74.5 26.5T803 1188q0 27 14 53-55 53-168 53-233 0-233-233 0-49 39-49h299q115 0 164 6 18 4 40 4 57 0 58-76 0-8-2-14-2-39-2-68 0 10-2-98l-2-109V326q0-117 2-127 8-84 57-84 23 0 48.5 7t41.5 7q66 0 66-68 0-70-82-69-18 0-119 10-59 6-121 6-51 0-96-6Q729-8 705-8q-61 0-62 65 0 72 66 72 10 0 36.5-6t47.5-6q49 0 59 96 2 10 2 129v279q0 199-22.5 227.5T688 877H483q-49 0-57-12.5t-9-21.5-1-48V403q0-39 2-92 2-45 2-57v-84q8-53 47-53 14 0 39.5 6t38.5 6q68 0 67-70 0-68-82-67-18 0-88 10-43 6-104 6-80 0-111-4L133-8h-18Q35-8 35 59z"/><glyph unicode="ﬂ" horiz-adv-x="1228" d="M35 63q0 27 21.5 47.5T106 131q20 0 46-7t47-7q39 0 49 49t12 237l2 437q0 37-37 37H123q-72 0-72 67 0 68 74 68h98q31 0 38 10t9 55q6 156 70 234 86 104 274 104 135 0 250-57 20 2 57 5t50 3q49 0 49-61 0 10-2-15l-6-73q-14-172-15-322V289q0-90 2-103 10-70 54-69 18 0 41.5 7t42.5 7q68 0 67-65 0-74-78-74-18 0-112 14-53 8-117 8-72 0-145-16-27-6-50-6-61 0-61 67 0 70 70 70 10 0 33.5-6t31.5-6q33 0 45.5 34.5T836 285l8 342v409q0 156-46 207t-190 51q-193 0-192-211 0-53 7-62t52-9h90q92 0 92-66 0-70-86-69H463q-31 0-39-10.5t-8-47.5V260q0-76 2-88 8-55 49-55 10 0 53 10 8 2 27 2 70 0 69-66 0-72-73-71-33 0-99.5 8T342 8q-68 0-117-6Q143-8 123-8 35-8 35 63z"/><glyph horiz-adv-x="0"/><glyph horiz-adv-x="682"/><glyph horiz-adv-x="0"/><glyph horiz-adv-x="0"/><glyph horiz-adv-x="0"/><glyph horiz-adv-x="512"/><glyph horiz-adv-x="512"/><glyph horiz-adv-x="0"/><glyph horiz-adv-x="512"/><glyph horiz-adv-x="512"/><glyph horiz-adv-x="512"/><glyph unicode="!" horiz-adv-x="858" d="M301 94q0 53 37 91t90 38 91-38 38-91-38-91-91-38-90 38-37 91zm45 1206q0 111 86 111 88 0 88-119 0-23-2-41-2-10-6-180l-6-221V465q0-72-2-88-8-57-43-64-12-2-31-2-74 0-74 103v432l-4 225q0 84-4 191-2 16-2 38z"/><glyph unicode="&quot;" horiz-adv-x="673" d="M109 1366h165l-28-549H135zm292 0h164l-26-549H428z"/><glyph unicode="#" horiz-adv-x="1228" d="M66 424l20 137h229l41 270H129l21 138h227l61 397h154l-62-397h275l61 397h154l-59-397h221l-21-138H938l-41-270h225l-22-137H877L811 0H657l66 424H446L381 0H229l66 424H66zm403 137h274l41 270H510z"/><glyph unicode="$" d="M129 352q0 84 41 135.5T279 539q45 0 75.5-30t30.5-75q0-88-106-94 10-96 99-153.5T610 127v516l-30 8q-166 45-226 72-74 33-114 92-47 68-47 172 0 106 59 198.5T406 1319q80 35 204 55v164q0 61 58 61 57 0 57-61v-164q184-20 292.5-102t108.5-201q0-53-32.5-89t-81.5-36q-41 0-70 26.5t-29 63.5q0 41 45 70-43 131-233 133V780q16-4 51-12 160-37 221.5-67.5T1112 600q63-84 64-199 0-109-59.5-202T958 61Q868 18 725-8v-174q0-53-57-54-57 0-58 54V-8Q458 2 354 46T189.5 172 129 352zm221 666q0-82 49.5-126T573 815q10-2 37-10v434q-115-4-187.5-65.5T350 1018zm375-891q125 2 208 73.5t83 180.5q0 100-59.5 153.5T760 612q-8 2-35 6V127z"/><glyph unicode="%" horiz-adv-x="1640" d="M72 989q0 195 91 308.5T410 1411q82 0 131-23.5t129-99.5q102-98 194-98 143 0 248 186 33 59 88 60 57 0 57-31 0-4-4-21l-18-34L535 6q-23-45-37-57-20-20-60-21-53 0-53 35 0 14 12 37l17 31 561 1081q-61-39-115-39-96 0-147 72 16-74 16-150 0-193-89-305T397 578q-147 0-236 112.5T72 989zm137-2q0-139 51-216t143-77q189 0 189 297 0 303-184 303-199 0-199-307zm694-635q0 201 92 318.5T1245 788q152 0 238-108.5t86-302.5q0-188-91.5-305T1241-45q-158 0-248 106.5T903 352zm137 8q0-135 52.5-211.5T1237 72q90 0 142.5 80t52.5 221q0 299-185 299-96 0-151.5-83T1040 360z"/><glyph unicode="&amp;" horiz-adv-x="1677" d="M76 391q0 240 200 367 68 43 125 71l25 13q-109 197-109 315 0 123 85 199t225 76q145 0 229-72t84-195q0-227-295-379l23-36q55-92 196-293l23-29 12 35 80 211q143 377 407 377 123 0 199-71t76-185q0-109-71.5-183.5T1411 537q-78 0-127 38.5T1235 678q0 98 86 98 74 0 74-67 0-8-11-33 29-4 33-4 39 0 67.5 32.5T1513 784q0 59-37.5 95T1372 915q-106 0-174-116-55-94-135-314-43-119-80-184 88-98 147.5-131t149.5-33q18 0 54 4t55 4q84 0 84-75 0-72-87-72h-32q-29 2-58 2h-108q-141 0-301 166-55-63-94-90-127-88-293-88-186 0-305 112.5T76 391zm174 2q0-115 72.5-185.5T512 137q174 0 281 142-137 175-215 294-49 76-89 144-78-37-127-80-113-96-112-244zm235 772q0-78 90-256 199 94 199 242 0 66-40 105.5T627 1296q-63 0-102.5-36t-39.5-95z"/><glyph unicode="'" horiz-adv-x="382" d="M109 1366h165l-28-549H135z"/><glyph unicode="(" horiz-adv-x="931" d="M137 508v39q0 356 228 602 129 139 284 215 129 63 189 63 39 0 39-28 0-23-54-49-197-96-344-275-172-207-172-512 0-412 209-657 147-174 320-256 57-27 57-53 0-27-37-27-72 0-219 80Q399-221 270 8 147 225 137 508z"/><glyph unicode=")" horiz-adv-x="931" d="M37 1399q0 29 37 28 72 0 218.5-78.5T541 1157q240-260 252-668 2-12 2-38 0-356-230-605-123-133-284-213-129-63-189-63-39 0-39 29 0 23 53 49Q307-250 453-78q172 205 172 512 0 412-209 658-147 172-322 256-57 27-57 51z"/><glyph unicode="*" d="M315 858q0 59 80 90l152 58q35 14 35 22 0 12-35 25l-152 57q-80 31-80 88 0 59 68 59 45 0 82-34l119-111q25-23 30-22 10 0 11 12 0 10-4 31l-33 155q-4 18-4 35 0 88 67 88 68 0 68-88 0-15-4-35l-35-188q0-10 10-10 6 0 31 22l119 111q39 37 82 37 68 0 67-60 0-59-80-90l-153-57q-35-14-35-25 0-8 35-22l153-58q80-31 80-88 0-61-67-61-43 0-82 37L721 946q-25 23-31 23-10 0-10-11v-8l4-24 31-156q4-20 4-35 0-86-68-86t-67 86q0 16 4 35l33 156q4 20 4 30 0 12-11 13-6 0-30-23L465 836q-39-37-84-37-66 0-66 59z"/><glyph unicode="+" horiz-adv-x="1024" d="M68 612v140h368v350h152V752h368V612H588V262H436v350H68z"/><glyph unicode="," horiz-adv-x="559" d="M119 86q0 59 41 99t102 40q74 0 119-57t45-150q0-156-121-321-53-72-90-72-41 0-41 41 0 14 16 37Q305-146 305-70q0 35-35 35h-41q-47 0-78.5 35T119 86z"/><glyph unicode="-" horiz-adv-x="632" d="M76 547q0 72 82 71h319q82 0 82-69 0-74-82-74H158q-82 0-82 72z"/><glyph unicode="." horiz-adv-x="559" d="M152 94q0 53 36.5 91t90.5 38q53 0 90-38t37-91-37-91-90-38-90 38-37 91z"/><glyph unicode="/" horiz-adv-x="819" d="M-80-393q0 8 6 18l21 51 24 60 533 1362q23 59 69 190l29 80q16 43 60 43h61q27 0 27-22 0-10-19-56l-18-45L127-213q-27-68-55-152-18-51-56-51h-65q-31 0-31 23z"/><glyph unicode="0" d="M86 674q0 342 154.5 539.5T664 1411q256 0 404.5-189.5T1217 709q0-350-154-552T643-45q-260 0-408.5 191.5T86 674zm182-8q0-268 98.5-415T645 104q184 0 288.5 160T1038 705q0 268-98.5 411.5T659 1260q-377 0-391-564v-30z"/><glyph unicode="1" d="M250 63q0 72 100 72 31 0 64-6 49-4 61-4 72 0 88.5 56T580 473l-7 594q-2 104-21.5 139t-76.5 35q-20 0-59-5t-60-5q-80 0-80 72t76 71q25 0 77-5t81-5q66 0 108 4 63 6 78 6 45 0 56-26 8-18 8-64 0-6-2-49-10-219-10-397V606q0-63 2-170 4-129 4-170 2-141 94-141 23 0 68 5t67 5q98 0 98-72T991-8q-35 0-65 4-172 23-262 22-90 0-222-18-74-10-104-10-88 0-88 73z"/><glyph unicode="2" d="M94 170q0 358 494 516l147 47q248 80 248 268 0 127-89 201t-245 74q-137 0-227-55.5T315 1069q111-8 111-96 0-53-39-91t-96-38q-70 0-112 48t-42 126q0 168 151.5 280.5T664 1411q217 0 355-113.5t138-293.5q0-123-66.5-217.5T905 645q-37-14-246-86-150-51-239-98-66-35-112-88t-56-129q92 98 223 98 121 0 254-106 147-117 227-117 57 0 93 38t36 97q0 20-8 45-33-33-73-33-88 0-89 86 0 47 35 78t92 31q76 0 122-54.5t46-144.5q0-127-79.5-217T936-45Q827-45 674.5 71.5T408 188q-115 0-144-86 20 4 25 4 59 0 59-59 0-92-102-92-68 0-110 58.5T94 170z"/><glyph unicode="3" d="M100 346q0 96 55.5 162.5T293 575q53 0 87-31.5t34-82.5q0-102-121-103h-23v-14q0-100 112-174t263-74q170 0 278.5 97.5T1032 442q0 266-303 267-80 0-166-19-18-4-35-4-49 0-49 53 0 25 33 58l426 417H463q-80 0-107-10-51-16-51-80 0-20 4-59t4-59q0-106-71-107-70 0-70 88 0 25 3 75t3 75q0 57-2 85.5t-2 63.5q0 55 20.5 68.5T297 1368h504q41 0 139 4 49 2 115 2 121 0 121-74 0-47-52-96L748 842q12 0 32 2h27q174 0 285.5-111.5T1204 446q0-217-158.5-354T637-45Q408-45 254 66.5T100 346z"/><glyph unicode="4" d="M31 502q0 33 22 65l543 674q86 106 127 138t94 32q111 0 111-145V559h241q68 0 68-70t-72-69H928V295q0-170 92-170 25 0 68 4l42 4q86 0 87-70 0-72-74-71-45 0-121 12-63 10-158 10-57 0-171.5-12T520-10q-78 0-78 69 0 74 95 74 20 0 60-4t60-4q102 0 103 170v125H125q-94 0-94 82zm198 57h531l14 670z"/><glyph unicode="5" d="M127 311q0 74 47 124t115 50q53 0 87-30.5t34-81.5q0-35-24-60.5T330 287q-25-2-25-15 0-68 107.5-122T653 96q164 0 269.5 101.5T1028 457q0 152-89 238.5T694 782q-190 0-303-110-45-43-63.5-56.5T281 598h-9q-80 0-79 90 0 4 2 8l28 396q2 33 4 112 2 113 16.5 138.5T319 1368q25 0 37-2l101 2h370q59 0 91 2 61 4 83 4 82 0 82-121l-2-14q0-53 17-125 8-25 8-45 0-66-70-65-66 0-69 96-4 115-101 114H438q-51 1-57-73l-25-328q160 111 353 111 229 0 362-122t133-333q0-229-158.5-371.5T631-45Q420-45 273.5 58.5T127 311z"/><glyph unicode="6" d="M100 604q0 371 166 589t447 218q172 0 292.5-86t120.5-209q0-57-39.5-98T993 977q-43 0-74.5 31.5T887 1085q0 61 57 82-62 109-244 109-184 0-298.5-154.5T272 700q129 223 426 224 223 0 364.5-131T1204 457q0-219-151.5-360.5T664-45q-262 0-413 174T100 604zm211-158q0-160 97.5-255T668 96q158 0 257 98.5t99 254.5q0 152-97 243.5T670 784q-166 0-262.5-91T311 446z"/><glyph unicode="7" d="M156 881q0 35 11 106.5t11 110.5q0 57-8 122.5t-8 114.5q0 84 71 84 59 0 60-71 0-15-8-60l-4-22q51 82 92 110.5t110 28.5q100 0 236-105 152-117 233-116 86 0 107 57h-17q-29 0-52 24.5t-23 55.5q0 39 29.5 66.5t70.5 27.5q135 0 135-182 0-135-67-238-43-63-93-110-23-23-90-82-139-121-190-223-74-145-74-353 0 4 2-45 4-98 4-88 0-129-102-129-106 0-107 168 0 264 99 461 80 160 340 373 106 88 120 145-70-59-176-59-131 0-256 94l-84 63q-45 33-100 33-131 0-131-168 0-51 8-92 14-72 14-106 0-35-23.5-59.5T238 793q-82 0-82 88z"/><glyph unicode="8" d="M104 397q1 190 144 301 53 41 143 74-113 63-153.5 121.5T197 1044q0 156 132 261.5T653 1411q193 0 325-105.5t132-261.5q0-92-42-150T915 772q86-33 142-74 143-109 143-301 0-197-149.5-319.5T659-45Q407-45 255.5 76T104 397zm183 2q0-133 101-216t265-83 265.5 83T1020 399t-98 214-260 81q-176 0-275.5-78.5T287 399zm86 645q0-86 77.5-140T653 850t202 54 77 143q0 96-79 157.5T653 1266q-123 0-201.5-62.5T373 1044z"/><glyph unicode="9" d="M123 911q0 215 146.5 357.5T639 1411q254 0 399.5-179T1184 739q0-367-162-575.5T575-45q-180 0-306 86T143 252q0 59 38 99t93 40q45 0 78-29.5t33-70.5q0-59-59-88Q389 88 586 88q193 0 305.5 152.5T1010 659Q895 450 602 451q-213 0-346 128T123 911zm176 9q0-150 90-238t242-88q160 0 251 88t91 240q0 156-91.5 250T643 1266q-154 0-249-96.5T299 920z"/><glyph unicode=":" horiz-adv-x="559" d="M152 94q0 53 36.5 91t90.5 38q53 0 90-38t37-91-37-91-90-38-90 38-37 91zm0 692q0 53 36.5 91t90.5 38q53 0 90-37.5t37-91.5q0-53-37-91t-90-38-90 38-37 91z"/><glyph unicode=";" horiz-adv-x="559" d="M119 86q0 59 41 99t102 40q74 0 119-57t45-150q0-156-121-321-53-72-90-72-41 0-41 41 0 14 16 37Q305-146 305-70q0 35-35 35h-41q-47 0-78.5 35T119 86zm12 700q0 53 37 91t90 38 91-37.5 38-91.5q0-53-38-91t-91-38-90 38-37 91z"/><glyph unicode="&lt;" horiz-adv-x="1024" d="M68 610v131l888 416v-149L229 676l725-332 2-149z"/><glyph unicode="=" horiz-adv-x="1024" d="M68 477v133h888V477H68zm0 314v133h888V791H68z"/><glyph unicode="&gt;" horiz-adv-x="1024" d="M68 195v151l727 330-725 332-2 149 888-416V610z"/><glyph unicode="?" horiz-adv-x="1228" d="M129 1016q0 172 146.5 283.5T651 1411q227 0 365.5-106.5T1155 1024q0-219-217-330-37-18-94-43-121-51-165-98t-44-125q0-57-10-78-16-31-66-31-86 0-86 107 0 98 49 168 61 84 226 174 147 80 190 129t43 133q0 113-92 181.5T645 1280q-154 0-258-73t-104-177q0-53 53-88-2 8-2 21 0 29 21.5 48t54.5 19q90 0 90-90 0-59-47-99t-117-40q-90 0-148.5 60.5T129 1016zM449 94q0 53 37.5 91t91.5 38q53 0 90-38t37-91-37-91-90-38-91 38-38 91z"/><glyph unicode="@" horiz-adv-x="1417" d="M76 598q0 299 222 521t525 222q229 0 373.5-135T1341 854q0-244-178-426-109-111-227-111-53 0-88 27t-35 68q0 16 2 28-78-121-240-121-98 0-158.5 67T356 559q0 186 135.5 328.5T805 1030q41 0 90-12l41-10q8-4 20-4 10 0 35 10 33 14 47 14 31 0 31-27 0-6-4-22l-10-39-117-436q-6-25-6-39 0-37 39-37 76 0 141 98 92 137 92 318 0 170-111.5 282.5T811 1239q-240 0-417-191.5T217 598q0-201 129-335t324-134q115 0 189.5 27.5T1047 266q41 31 67 31 39 0 39-37 0-39-53-80Q897 20 653 20q-248 0-412.5 165T76 598zm420-20q0-141 122-142 170 0 238 254l55 205q-61 31-118 31-119 0-208-104.5T496 578z"/><glyph unicode="A" horiz-adv-x="1527" d="M-16 57q0 72 77 72 16 0 25-2h27q55 0 84 43 12 16 41 96l380 1030q33 86 130 86 94 0 124-86l367-1015q35-96 63.5-127t81.5-31q16 0 25 2l57 4q78 0 78-66 0-69-76-69h-2q-23 0-59 4-129 14-193 14-76 0-245-16-43-4-66-4-82 0-82 69 0 70 90 70 18 0 54-4t55-4q67 0 67 53 0 10-16 55l-74 201q-12 33-25.5 41t-53.5 8H553q-41 0-56.5-14T457 389l-60-158q-8-23-8-43 0-65 78-65h2q20 0 58 4t57 4q84 0 84-72 0-67-90-67h-3q-16 0-45 4L428 10q-29 4-94 4-72 0-101-4L147-2q-57-8-84-8-80 0-79 67zm563 578q0-18 31-19h325q25 0 25 17 0 4-4 16l-185 565-188-565q-4-12-4-14z"/><glyph unicode="B" horiz-adv-x="1417" d="M39 63q0 66 63 66 16 0 56-6 27-4 43-4 104 0 104 151v824q0 153-103 153h-1q-18 0-43-4-37-6-56-6-63 0-63 66 0 71 91 71h30l100-14q43-6 117-6 78 0 221 12 96 8 207 8 207 0 322.5-87t115.5-243q0-209-237-294 86-27 141-60 166-96 166-289 0-188-145.5-299.5T778-10q-88 0-223 10T356 10q-55 0-104-6L156-8q-4 0-15-2h-14Q39-8 39 63zm420 250q0-133 45-163.5T750 119q383 0 383 287 0 264-369 264H594q-111 0-127-49-8-25-8-80V313zm0 643q0-109 19.5-134T586 797h114q362 0 363 235 0 215-299 215-209 0-257-26.5T459 1083V956z"/><glyph unicode="C" d="M78 668q0 334 169 538.5T692 1411q227 0 371-174l-2 23v22q-2 12-2 14-4 45-4 41 0 70 65 70 70 0 70-86 0-16-8-98-10-102-11-142 0-55 7-112l8-78v-21q0-92-74-92-80 0-78 88l2 74v12q0 140-92 228-96 92-252 92-203 0-317.5-155.5T260 686q0-281 118-437.5T707 92q115 0 206 55.5T1040 293q25 59 25 160 0 94 78 94 84 0 84-94 0-219-151.5-358.5T684-45q-276 0-441 194.5T78 668z"/><glyph unicode="D" horiz-adv-x="1490" d="M39 61q0 29 18.5 48.5T102 129q23 0 56-6 14-4 43-4 104 0 104 153v822q0 153-103 153h-1q-18 0-43-4-37-6-56-6-63 0-63 66 0 71 89 71h3q10 0 27-2l108-14q61-8 131-8 57 0 115 6l133 14q39 4 103 4 186 0 311-53 164-70 259-242t95-399q0-201-75.5-361.5T1130 82Q972-10 750-10q-45 0-93 4L516 6q-72 6-149 6-68 0-111-6L158-8q-4 0-15-2h-16q-88 0-88 71zm438 187q0-94 92-115 31-8 172-8 246 0 357 133 133 160 133 422 0 205-81 347t-222 183q-90 27-217 27-162 0-198-18.5T477 1114V248z"/><glyph unicode="E" horiz-adv-x="1378" d="M39 63q0 66 63 66 10 0 56-4 23-6 43-6 104 0 104 153v822q0 151-103 151h-1q-29 0-43-4-33-6-56-6-27 0-45 19.5T39 1303q0 71 84 71h2q2 0 31-2 287-19 287-20h-1 21l493 14q14 0 107 6 33 2 59 2 106 0 107-94 0-16-8-104-6-66-7-121 0-72 5-101 8-59 8-88 0-78-74-78t-74 109v107q0 172-71 202-53 23-275 23-145 0-172-6-88-23-88-123V963q-2-29-2-41v-27q0-82 37-94 14-4 49-4h84q129 0 129 88 0 25-6 63.5t-6 69.5q0 82 73 82 74 0 74-88 0-16-14-127-12-94-12-166 0-41 8-146 2-16 10-71 6-45 6-72 0-74-74-74-71 0-71 84 0 25 5 68t5 65q0 88-117 89h-92q-59 0-72.5-20.5T473 553V426q0-33 2-88 2-68 2-90 2-82 33-103 23-14 106-14h279q121 0 166 36t45 134q0 31-3 91.5t-3 90.5q0 92 74 92 77 0 77-92 0-45-4-115-4-76-4-112 0-29 3-85t3-85q0-96-94-96-23 0-72 4-25 2-90 2h1L833 0Q659 4 532 4 339 4 156-8q-8 0-19-2h-12q-86 0-86 73z"/><glyph unicode="F" horiz-adv-x="1267" d="M39 63q0 66 63 66 8 0 54-4 23-6 43-6 55 0 76.5 33.5T299 272l4 324v172l-2 326q0 151-103 151h-1q-27 0-41-4-33-6-54-6-27 0-45 19.5T39 1303q0 71 84 71h2q10 0 31-2l141-14q80-8 178-8 53 0 230 6l235 8q47 2 111 6 29 2 61 2 109 0 109-96 0-37-10.5-113t-10.5-114q0-33 4-82t4-90q0-84-73-84-76 0-76 96 0 29 3 88t3 88q0 109-61.5 137.5T713 1231q-195 0-221-35-20-27-21-188V856q0-57 15.5-70.5T571 772h68q133 0 133 98 0 23-5 62t-5 59q0 78 74 78 69 0 69-87 0-14-4-52l-12-111q-8-74-8-110 0-84 18-213 6-43 6-82 0-80-74-80-69 0-69 84 0 22 3 63t3 62q0 63-35 82-23 14-94 14h-64q-72 0-88-16.5T471 532V289q0-96 21.5-130t80.5-34q14 0 45 2t46 2q94 0 94-70 0-29-21.5-49T684-10q-33 0-96 10-90 14-205 14-74 0-158-12L156-8q-6 0-15-2h-12q-90 0-90 73z"/><glyph unicode="G" horiz-adv-x="1454" d="M78 666q0 340 164.5 542.5T686 1411q205 0 371-154-4 29-4 33-4 41-4 45 0 68 67 68 74 0 74-88 0-29-2-43l-14-98q-6-43-7-93 0-39 9-166v-18q0-92-76-92-72 0-72 100v62q0 141-93 223t-251 82q-199 0-311.5-153.5T260 696q0-285 116-444.5T696 92q158 0 244 92t86 262q0 70-23.5 97.5T920 571q-16 0-47-2t-48-2q-98 0-98 70 0 72 84 72 27 0 59-4 129-16 207-17 100 0 213 19 25 4 56 4 81 0 81-66 0-31-21-51-22-21-50-21-25 0-37 2-4 0-14 3h-17q-90 0-90-201V213q0-53 4-96t4-68q0-84-73-84-72 0-72 72l4 49q2 18 4 64-47-63-74-89Q876-45 666-45q-264 0-426 196.5T78 666z"/><glyph unicode="H" horiz-adv-x="1603" d="M37 63q0 27 19.5 47.5T102 131q18 0 56-6 23-6 43-6 104 0 104 153v822q0 153-103 153h-1q-14 0-45-6t-54-6q-27 0-46 20.5T37 1303q0 71 91 71h3q18 0 76-10 78-14 190-14 43 0 128 12t126 12q90 0 90-74 0-29-18-48t-45-19q-23 0-55.5 6t-44.5 6q-100 0-103-153l-2-304h655v302q0 153-103 153h-1q-12 0-44-6t-54-6q-66 0-66 67 0 74 88 74 29 0 104.5-12t139.5-12q102 0 205 14 59 8 78 8 90 0 90-72 0-65-62-65h-2q-16 0-49 5t-49 5q-104 0-105-153V272q0-153 102-153h1q16 0 50 5t50 5q63 0 64-66 0-73-88-73h-2q-18 0-80 12-72 14-156 14-113 0-190-12-90-14-99-14-90 0-90 73 0 68 66 68 16 0 49-5t49-5q86 0 102 112 2 14 2 185v231H473V416q0-170 2-185 16-112 101-112h2q16 0 50 5t50 5q63 0 63-66 0-73-88-73h-2q-14 0-88 12-98 16-172 16-86 0-184-16l-49-8q-25-4-27-4-94 0-94 73z"/><glyph unicode="I" horiz-adv-x="782" d="M39 63q0 66 63 66 10 0 56-4 23-6 43-6 104 0 104 153v822q0 151-103 151h-1q-29 0-43-4-33-6-56-6-27 0-45 19.5T39 1303q0 71 88 71h2q12 0 29-2l108-14q61-8 127-8 63 0 139 10l93 12q16 2 28 2 90 0 90-71 0-29-18-48.5t-45-19.5q-20 0-55 6-14 4-43 4-104 0-105-151V272q0-153 104-153h1q16 0 43 4 39 6 55 6 63 0 63-66 0-73-88-73h-16q-8 2-14 2L518 8q-53 8-112 8-86 0-154-10L158-8q-4 0-15-2h-16q-88 0-88 73z"/><glyph unicode="J" horiz-adv-x="1267" d="M39 354q0 131 83 220.5T328 664q88 0 143-46.5T526 498q0-51-32.5-89T416 371q-39 0-69 25.5T317 457q0 33 29 55-18 10-31 10-45 0-78.5-48T203 362q0-113 88-186.5T516 102q309 0 344 279 14 117 14 321v66l-2 326q0 151-103 151h-1q-29 0-43-4-33-6-55-6-27 0-45.5 19.5T606 1303q0 71 88 71h2q12 0 29-2l109-14q61-8 127-8 61 0 139 10l94 12q8 2 29 2 90 0 90-71 0-68-66-68-20 0-55 6-14 4-43 4-104 0-105-151V702q0-307-24-411-23-92-92-170Q778-45 522-45 307-45 173 66.5T39 354z"/><glyph unicode="K" horiz-adv-x="1603" d="M37 1300q0 72 92 72 10 0 27-2l98-12q66-8 111-8 55 0 165.5 12t126.5 12q86 0 86-71 0-29-18-48.5t-45-19.5q-20 0-55 6-14 4-43 4-72 0-90-50-17-45-17-208v-37l2-254 578 492q23 18 22 35 0 23-39 22-16 0-22-2-74-8-109-8-73 0-73 70 0 69 85 69h3q47 0 84-4l108-12q72-8 109-8 74 0 182 16 55 8 82 8 78 0 78-69 0-70-72-70-6 0-20 2h-23q-10 2-31 2-78 0-139-51L893 864q-25-20-25-37 0-10 21-34l31-48 327-446q131-178 197-178 4 0 12 2h10q55 6 68 6 74 0 74-70 0-69-78-69h-2L1425 2q-76 8-172 8-111 0-231-12-80-8-90-8-76 0-76 67 0 74 80 74 23 0 63-4 80-8 93-8 49 0 49 20 0 14-19 39L741 696q-12 16-22 17-8 0-27-17L477 508q-2-37-2-84 0-178 2-191 16-116 102-116h1q12 0 44.5 6t55.5 6q27 0 45-19.5T743 61q0-71-88-71h-16q-8 2-14 2L510 8q-43 6-133 6-66 0-109-6L156-8q-4 0-13-2h-12q-92 0-92 71 0 66 63 66 18 0 56-6 25-4 43-4 102 0 102 153 0-4 2 144v534l-2 144q0 153-101 153h-1q-20 0-43-6-37-6-56-6-66 0-65 67z"/><glyph unicode="L" d="M39 63q0 66 63 66 16 0 49-5t50-5q104 0 104 153v822q0 151-103 151h-1q-29 0-43-4-33-6-56-6-27 0-45 19.5T39 1303q0 71 86 71h2q12 0 31-2l108-12q90-10 133-10 53 0 131 10l95 12q16 2 26 2 92 0 92-71 0-29-18-48.5t-45-19.5q-20 0-55 6-14 4-43 4-104 0-105-151V295q0-121 25-143 18-18 48-22.5t134-4.5h180q141 0 188.5 38t47.5 152q0 31-2 72-4 80-4 96 0 90 71 90 86 0 86-81 0-25-2-39l-14-105q-6-45-6-94 0-29 5-85t5-85q0-92-104-92-20 0-95 4-49 2-151 4L735 2H408q-49 0-164-4-16 0-56.5-4T125-10q-86 0-86 73z"/><glyph unicode="M" horiz-adv-x="1939" d="M39 61q0 29 18.5 48.5T102 129q23 0 53.5-6t45.5-6q104 0 104 153v824q0 153-103 153h-1q-16 0-49-5t-50-5q-63 0-63 66 0 71 89 71h3q8 0 27-2l71-8q53-6 101-6 39 0 105.5 8t96.5 8q80 0 107-100l14-53L969 184l346 1104q27 86 92 86h10q20 0 53-6 41-10 54-10 33-4 90-4 61 0 96 6l72 12q6 2 24 2 94 0 95-71 0-66-66-66-16 0-48 5t-48 5q-104 0-105-153V950l-2-180V596l2-324q0-153 102-153h1q20 0 45 6 45 4 53 4 66 0 66-66 0-73-87-73h-2q4 0-30 4-141 16-240 16-96 0-184-14-37-6-66-6-80 0-80 67 0 70 82 70 20 0 31-2 45-4 53-4 74 0 92 153 4 33 5 209 0 68 2 197l4 184v363q0 12-11 12-6 0-12-12L1081 57q-25-77-112-77h-2q-53 0-79 15t-40 62L477 1227q-6 12-14 12t-8-12l12-953q2-149 81-149h1q23 0 61 8h25q80 0 80-72 0-71-80-71h-2q-14 0-43 4-45 6-96 14-41 6-105 6-113 0-145-6L158-8q-4 0-13-2h-12q-94 0-94 71z"/><glyph unicode="N" horiz-adv-x="1564" d="M37 1303q0 71 86 71h2q12 0 33-2 102-10 157-10 31 0 92.5 6t92.5 6q63 0 84-43l22-49 551-1145v826q0 160-2 176-18 106-102 106-16 0-49-5t-50-5q-27 0-46 19.5t-19 45.5q0 74 92 74 18 0 27-2l92-12q61-8 114-8t142 12q31 4 71 10 4 0 15 2h14q88 0 88-71 0-70-82-70-14 0-22 2h-21q-61 0-79.5-26.5T1317 1094l-4-117-4-209V221q0-141-32-198.5T1167-35q-100 0-170 144L461 1225V272q0-153 103-153h1q16 0 49 5t50 5q66 0 65-68 0-71-89-71h-15q-10 2-15 2L526 4q-70 10-131 10-53 0-137-10L158-8q-4 0-15-2h-16q-88 0-88 71 0 63 65 64 10 0 56-4 23-6 43-6 104 0 104 153v144l2 180v176l-2 324q0 153-105 153h-1q-14 0-41-4-39-6-58-6-66 0-65 68z"/><glyph unicode="O" horiz-adv-x="1341" d="M78 684q0 340 159.5 533.5T678 1411q268 0 427-188.5T1264 713q0-348-161-553T668-45q-272 0-431 196.5T78 684zm180 2q0-279 108.5-431.5T670 102q190 0 301.5 159T1083 692q0 274-106 423t-305 149q-197 0-305.5-151.5T258 686z"/><glyph unicode="P" d="M37 1303q0 71 88 71h2q14 0 31-2l100-12q49-6 123-6 51 0 123 6 168 14 254 14 131 0 225-20 135-29 212-127.5t77-237.5q0-193-132-295T758 592H612q-68 0-80 2h-4q-33 0-42-11.5t-9-52.5v-41q0-260 15.5-315t89.5-55q23 0 43 6 45 4 55 4 63 0 63-66 0-73-88-73h-2l-28 4L522 8q-43 6-129 6-72 0-117-6L158-8q-4 0-13-2h-14q-92 0-92 71 0 29 18.5 48.5T102 129q23 0 56-6 14-4 43-4h1q103 0 103 153v822q0 151-103 151h-1q-16 0-43-4-39-6-56-6-66 0-65 68zm440-519q0-55 78-63h119q145 0 241 22 182 43 183 240 0 260-332 260-245 0-274-43-14-20-15-113V784z"/><glyph unicode="Q" horiz-adv-x="1341" d="M78 674q0 344 159.5 540.5T678 1411q270 0 428-192.5T1264 696q0-479-330-682v-155q0-145 119-146 68 0 92 35 16 25 20 94 4 96 74 97 80 0 80-101 0-113-72.5-181.5T1057-412q-258 0-258 238v143q-63-14-127-14-272 0-433 194.5T78 674zm174 6q0-385 188-535-55 90-55 172 0 100 83 169t204 69q125 0 194.5-70.5T936 289V180q59 74 86 142 61 164 61 378 0 268-106.5 416T678 1264q-201 0-313.5-154T252 680zm244-414q0-80 49-129t129-49q51 0 127 21v157q0 162-137 162-74 0-121-45t-47-117z"/><glyph unicode="R" horiz-adv-x="1490" d="M39 63q0 66 63 66 10 0 56-4 23-6 43-6 104 0 104 153v822q0 153-103 153h-1q-16 0-49-5t-50-5q-27 0-45 19.5T39 1303q0 71 88 71h2q8 0 29-2l104-10q41-4 103-4 63 0 141 4l156 8q78 4 143 4 451 0 450-344 1-202-155-276-59-29-152-49 121-23 167-90.5t46-223.5v-94q-2-8-2-25 0-147 94-147 96 0 97 176v61l-2 52v28q0 59 8 82 16 35 63 35 74 0 74-86 0-2-2-45l-2-43q-2-43-2-55v-51q2-12 2-37 0-119-66.5-185.5T1237-10q-242 0-242 243v62l2 70v45q0 137-52 181t-216 44H539q-66 0-66-80V397q0-152 4-172 18-102 103-102 29 0 43 4 35 6 53 6 66 0 65-70 0-73-86-73h-2l-30 4L512 8q-63 8-113 8-61 0-143-10L158-6q-33-4-31-4-88 0-88 73zm434 762q0-35 12-44t47-9h193q172 0 258 49 104 59 104 199 0 233-319 233-170 0-230.5-25.5T475 1126l-2-65V825z"/><glyph unicode="S" horiz-adv-x="1267" d="M123 510q0 92 78 92 80 0 80-92v-37q-2-16-2-47 0-154 98-244t266-90q156 0 248 74t92 201q0 195-246 237l-116 21q-174 31-271 71-88 39-140 122t-52 188q0 180 131 292.5T629 1411q201 0 327-129v29q0 80 64 80 70 0 70-88v-13q0-4-6.5-61.5T1077 1092q0-10 4-66l6-82q2-10 3-29 0-98-76-98-80 0-80 82v10l4 56q2 29 2 45 0 123-83 192.5T629 1272q-133 0-212-65.5T338 1030q0-129 117-190 66-33 229-60 244-39 334-106 135-100 135-285 0-193-138-313.5T657-45q-233 0-387 147 0-8 2-18V72q4-33 4-43 0-76-71-76-78 0-78 86 0 10 2 16l8 107q6 80 6 102 0 41-10 123t-10 123z"/><glyph unicode="T" d="M53 1288q0 86 78 86 29 0 133-6 10 0 168-4l234-4q41 0 219 4 39 0 133 6 84 6 131 6 102 0 102-84v-4q0-20-5-75.5t-11-118.5v-23q0-31 6-96 8-86 8-107 0-84-80-84-77 0-77 100 0 42 6 112 6 72 6 110 0 141-162 141h-57q-76 0-109-31.5T739 1110l-6-143-2-697q0-153 104-153h1q16 0 49 5t49 5q27 0 46-19.5T999 61q0-71-89-71h-15q-10 2-14 2L780 6q-57 8-129 8-78 0-137-8L412-8q-6 0-15-2h-14q-90 0-90 71 0 66 65 66 16 0 49-5t50-5q102 0 102 153v144l2 180v174l-2 334q0 145-149 145h-64q-147 0-147-143 0-51 2-70l8-76q2-18 2-51 0-129-80-129-76 0-76 94 0 27 4 93 6 98 7 125 0 51-5 106-7 94-8 94v-2z"/><glyph unicode="U" horiz-adv-x="1454" d="M20 1305q0 69 76 69h2q33 0 70-6 100-16 186-16 88 0 203 18 25 4 53 4 84 0 84-69 0-70-71-70-16 0-49 5t-50 5q-66 0-88-69-10-31-12-125l-4-131-8-166V438q0-143 31.5-208.5T563 127q82-35 168-35 113 0 193 43t103.5 116 25.5 185l4 527q0 156-4 176-18 104-105 104-14 0-41-4-39-6-55-6-27 0-46.5 20.5T786 1300q0 74 91 74 14 0 28-2l121-16q45-6 102-6 55 0 93 6l88 14q37 6 49 6 86 0 86-69 0-70-84-70h-23q-6 2-20 2-61 0-75.5-61.5T1227 862V504q0-133-8-193-16-102-70-178Q1026-45 733-45q-360 0-465 235-32 70-32 215v9q0 74 6 218t6 218v108q0 150-2 168-14 113-80 113h-14q-10-2-18.5-3t-27.5-1q-86 0-86 70z"/><glyph unicode="V" horiz-adv-x="1490" d="M-10 1303q0 73 80 73h2q25 0 55-6 110-22 196-22h7q51 0 151.5 13t149.5 13q76 0 76-67 0-74-78-74-4 0-19 2h-20q-12 2-35 2-90 0-90-57 0-29 10-62l23-74 288-874 275 856q31 98 31 139 0 78-82 78-14 0-45-5t-45-5q-80 0-80 72 0 69 76 69h2q43 0 130-12t132-12q74 0 182 18 35 6 65 6 76 0 76-71 0-70-76-70-2 0-8 2l-47 4h-10q-35 0-56.5-34t-60.5-146L909 74Q874-26 780-27q-98 0-133 101L281 1104q-27 76-43 96-29 35-91 35-12 0-38.5-2t-38.5-2q-80 0-80 72z"/><glyph unicode="W" horiz-adv-x="1900" d="M-10 1303q0 71 69 71h2q29 0 66-6 111-18 215-18 49 0 225 20 31 4 60 4 74 0 73-67 0-74-90-74-18 0-56 4t-56 4q-72 0-72-67 0-25 6-58l12-65 168-867 211 1065q27 139 138 140 117 0 139-123l205-1096 174 850q18 90 18 137 0 84-86 84-18 0-53-2t-53-2q-88 0-88 70 0 67 84 67h2q33 0 67-4 168-20 221-20 41 0 122 12t122 12q76 0 76-71 0-66-74-66-12 0-36.5 3t-37.5 3q-43 0-62.5-32.5T1655 1063L1425 86q-27-113-127-113-106 0-133 140L958 1196 731 84Q708-27 614-27q-96 0-122 113L248 1106q-18 78-46 105.5t-87 27.5h-15l-45-4q-66 0-65 68z"/><glyph unicode="X" horiz-adv-x="1603" d="M8 63q0 72 76 72 12 0 37.5-3t38.5-3q47 0 80.5 25.5T346 268l363 447-375 440q-70 82-127 82-16 0-46-2t-46-2q-84 0-84 74 0 69 86 69h2q10 0 129-20 57-8 114-8 109 0 242 20 41 6 72 6 82 0 82-69 0-72-82-72-6 0-19 2h-18q-27 4-58.5 8t-41.5 4q-25 0-25-14 0-8 12-25l285-372 281 356q16 20 16 37 0 16-27 16-16 0-30-2-59-8-95-8-82 0-82 72 0 67 74 67h2q31 0 78-8 94-16 197-16 63 0 178 18 51 8 65 8 84 0 84-71 0-72-75-72-14 0-43 5t-43 5q-49 0-121-88L909 715l385-467q100-123 164-123 4 0 15 2h12q12 2 33 2 76 0 75-68 0-71-78-71h-2q-20 0-71 8-117 18-191 18-82 0-180-16-61-10-98-10-88 0-88 73 0 70 84 70 35 0 69-2l64-4h14q33 0 33 20 0 16-39 66L805 596 506 213q-37-47-37-66 0-23 29-22h4l47 4 61 4q31 2 52 2 90 0 90-72 0-73-76-73h-2q-25 0-80 10-100 18-201 18-115 0-227-20-45-8-72-8Q8-10 8 63z"/><glyph unicode="Y" horiz-adv-x="1490" d="M-29 1300q0 74 82 74 33 0 82-8 98-16 184-16 63 0 191 18 43 6 74 6 84 0 84-71 0-70-101-70l-20 2h-51l-41 2q-25 2-25-16 0-8 2-11.5l10-17.5 314-533 317 533q10 16 10 33 0 18-26 18h-4l-37-2-53-6q-35-4-54-4-84 0-84 72 0 71 80 71h2q31 0 74-6 115-16 199-16 88 0 194 16 41 6 70 6 78 0 78-71 0-66-76-66-31 0-47 4-33 4-45 4-53 0-86-49l-31-47-403-633v-86q0-209 17-260t87-51q16 0 50 5t50 5q63 0 64-66 0-73-90-73h-15q-8 2-14 2L870 6q-63 8-125 8-66 0-124-8L516-8q-4 0-12-2h-15q-92 0-92 71 0 68 66 68 16 0 48-5t48-5q86 0 105 108 2 19 2 181v38q-2 33-2 56l-398 628q-39 61-49 72-31 31-76 31-25 0-37-2H86q-14-2-20-2-94 0-95 71z"/><glyph unicode="Z" horiz-adv-x="1267" d="M80 104q0 63 47 119l864 1020H489q-127 0-173-45t-46-166q0-20 2-63t2-64q0-102-77-102-76 0-76 84 0 39 8 113.5t8 113.5q0 27-4 79t-4 79q0 106 102 106h9l55-2q20-1 47.5-1t63.5 1h71q51-2 66-2l424 2h82q147 0 147-102 0-47-43-98L250 121h514q176 0 230.5 32.5T1049 291q0 31-6.5 84t-6.5 94q0 82 78 82 74 0 74-86 0-23-6-86.5t-6-122.5q0-57 2-76 8-72 8-96 0-96-117-96-49 0-94 2-184 8-385 8-100 0-234-6-43-2-110-2-96 0-131 24.5T80 104z"/><glyph unicode="[" horiz-adv-x="894" d="M217-315q0 61 4 157.5T225 0v971q0 63-4 159.5t-4 155.5q0 66 19 82 12 10 40 10 27 0 79.5-5t78.5-5q104 0 157.5 6t102.5 6q109 0 109-71 0-68-115-68-35 0-100.5 10.5T487 1262q-57 0-76.5-15.5T387 1176l-8-111q-6-82-6-264V170q0-182 6-264l8-111q4-55 27-71 16-12 73-13 35 0 101.5 9.5T688-270q115 0 115-68 0-72-109-72-41 0-123 6.5T449-397h-17q-27 0-79-5.5t-77-5.5q-41 0-53 29-6 16-6 64z"/><glyph unicode="\" horiz-adv-x="1024" d="M53 1536h148L930-170H782z"/><glyph unicode="]" horiz-adv-x="894" d="M92-338q0 68 115 68 31 0 97.5-9.5T408-289q57 0 76.5 14.5T508-205l8 111q6 84 6 264v631q0 180-6 264l-8 111q-4 55-23.5 70.5T408 1262q-35 0-101.5-10.5T207 1241q-115 0-115 68 0 72 109 71 47 0 102-6t158-6q27 0 79 5t78 5q41 0 54-28 6-16 6-64 0-63-4-155.5T670 795V176q0-238 4-335t4-156q0-66-15.5-79.5T618-408q-27 0-78 5.5t-77 5.5q-106 0-159.5-6.5T201-410q-109 0-109 72z"/><glyph unicode="^" horiz-adv-x="1024" d="M51 748l363 622h196l363-622H809l-299 501-297-501H51z"/><glyph unicode="_" horiz-adv-x="1024" d="M0-137h1024v-135H0v135z"/><glyph unicode="`" horiz-adv-x="1007" d="M272 1358q0 31 21.5 52.5T346 1432q27 0 60-21l258-162q43-27 43-53 0-49-43-49 2 0-29 6l-291 127q-72 31-72 78z"/><glyph unicode="a" horiz-adv-x="1155" d="M61 266q0 170 146 250 55 31 95 40t161 24q172 18 224 51t52 121q0 84-58 132t-163 48q-92 0-172-51-31-20-31-43 0-8 19-21 28-19 28-66 0-44-29.5-71T258 653q-53 0-89 37t-36 90q0 115 113.5 197t275.5 82q373 0 373-359V287q0-98 4-117 12-72 70-72 72 0 71 131v101q0 65 62 65h2q68 0 67-98v-10l-2-117q-3-197-208-197-168 0-207 146Q650-35 426-35q-166 0-265.5 82T61 266zm166 2q0-78 56.5-123T436 100q137 0 216 75t81 206l2 145q-45-41-95-57t-179-29q-233-23-234-172z"/><glyph unicode="b" horiz-adv-x="1155" d="M-49 1323q0 68 82 68 25 0 41-2l49-7q33-4 53-4 23 0 64 7.5t61 7.5q45 0 45-58v-28q-16-170-18-404 66 86 133 121t170 35q205 0 325.5-143.5T1077 535q0-260-128-415T604-35q-211 0-305 158 8-59 8-66 0-73-69-73h-2q-72 0-72 102 0 29 2 43 0 47 2 100l6 158 4 207-4 547q-2 76-15.5 102.5T113 1270q-6 0-54-8-23-4-39-5-70 0-69 66zm379-795q0-203 32-278 63-150 242-150 141 0 224 112t83 300q0 193-78.5 302.5T616 924q-96 0-174-60.5T344 713q-14-66-14-185z"/><glyph unicode="c" horiz-adv-x="1044" d="M80 500q0 254 132 406.5T563 1059q164 0 272.5-89T944 743q0-76-42-125t-107-49q-51 0-85 31t-34 76q0 82 102 94-10 72-68.5 113T559 924q-141 0-227-113t-86-299q0-193 81-302.5T551 100q90 0 156.5 51.5T799 293q20 72 24 82 23 41 66 41 35 0 57.5-22.5T969 336q0-51-33-123T858 94Q737-35 545-35q-209 0-337 147.5T80 500z"/><glyph unicode="d" horiz-adv-x="1228" d="M80 514q0 248 125 396.5T539 1059q203 0 303-158v207q0 82-4 100-10 63-58 64-16 0-45.5-6t-46.5-6q-76 0-76 65 0 68 103 68 16 0 59-4 66-6 68-7 18 0 53 4.5t53 4.5q57 0 58-82v-23q-2-6-5-108 0-12-6-158-4-102-4-156V664l4-342q2-135 12.5-168t49.5-33q27 0 41 4 33 4 45 4 76 0 76-68 0-69-90-69h-3q-20 0-62 5t-63 5q-6 0-47-4-25-6-43-6-55 0-55 74v10l2 35Q749-34 543-35q-209 0-336 151.5T80 514zm166 4q0-195 84-306.5T559 100q111 0 184.5 65T829 336q8 68 9 174 0 137-11 186-18 102-88 160-82 68-188 68-143 0-224-108.5T246 518z"/><glyph unicode="e" horiz-adv-x="1081" d="M80 498q0 250 135 405.5T567 1059q193 0 318-129t125-328q0-78-10.5-95.5T940 489H289q-27 0-35-7t-8-23q0-154 92-256.5T567 100q90 0 165 49.5T829 274l19 60q14 49 67 49 76 0 76-78 0-133-135-236.5T549-35q-215 0-342 144.5T80 498zm186 157q0-28 42-28h493q43 0 43 28 0 109-82 189t-193 80q-115 0-209-83.5T266 655z"/><glyph unicode="f" horiz-adv-x="708" d="M35 63q0 27 21.5 47.5T106 131q20 0 46-7t47-7q39 0 49 49t12 237l2 431q0 37-37 36H123q-72 0-72 76 0 72 74 72h117q27 0 26 26v37q0 162 86 248t244 86q129 0 207-52t78-140q0-45-29-73t-72-28q-41 0-68.5 25.5T686 1210q0 29 21 52-34 32-99 32h-4q-88 0-138-56t-50-157v-37q0-27 26-26h160q68 0 68-74t-68-74H451q-35 0-35-36V260q0-76 2-88 10-55 51-55 10 0 51 10 29 4 41 4 70 0 70-68 0-71-82-71h-2q-35 0-105.5 8T336 8q-61 0-111-6Q145-8 123-8 35-8 35 63z"/><glyph unicode="g" horiz-adv-x="1118" d="M55-61q0 166 187 235Q76 240 76 371q0 143 166 196-53 72-54 168 0 139 107.5 231.5T565 1059q53 0 121-17 10 201 234 201 94 0 157.5-49t63.5-125q0-49-32-84t-75-35q-33 0-57.5 22.5T952 1026q0 33 45 68-33 41-84 41-109 0-110-136 155-103 155-278 0-143-106-237-107-95-266-95-113 0-234 53-33 14-55 15-29 0-51.5-25.5T223 371q0-106 215-107h13q16 0 36 2h25q195 0 315-37 113-35 178.5-108.5T1071-45q0-150-138-237t-374-87-370 82T55-61zm166 8q0-84 92.5-132T561-233q164 0 259 49t95 131q0 86-90 134t-252 48q-164 0-258-49T221-53zm127 778q0-90 61.5-145.5T569 524q102 0 167 55.5T801 721q0 88-66 145.5T571 924q-90 0-153.5-53.5T348 737v-12z"/><glyph unicode="h" d="M18 1323q0 29 25 49.5t59 20.5q10 0 70-7 39-4 84-4 18 0 51 4.5t47 4.5q47 0 47-68v-4l-8-397q82 78 149.5 107.5T702 1059q176 0 283-100.5T1092 694V352q0-121 2-133 8-102 53-102 16 0 47 8 12 2 33 2 76 0 76-68 0-67-96-67h-3q-27 0-78 6-86 10-139 10t-82-4Q819-8 799-8q-37 0-61.5 21.5T713 68q0 27 21.5 45t49.5 18q23 0 54-10 18-6 34-6 61 0 64 133 0 25 2 96l2 88v111q0 209-41 280-59 106-209 107-162 0-235-111-51-76-54-244l-2-147q0-12-2-41v-39q0-117 2-135 10-100 60-100 16 0 46 7t44 7q66 0 65-64 0-71-88-71h-2q-29 0-86 6-78 8-133 8-35 0-96-6-82-8-105-8-84 0-84 74 0 61 78 61 27 0 39-4 35-6 49-6 33 0 44.5 62.5T244 434l2 367q0 307-12.5 388t-57.5 81q-14 0-43-6.5t-45-6.5q-70 0-70 66z"/><glyph unicode="i" horiz-adv-x="634" d="M33 61q0 68 69 68 16 0 48-6t49-6q49 0 59 131v524q-10 129-61 129-16 0-46-7t-45-7q-74 0-73 65 0 70 90 70 39 0 55-2 66-8 84-8 16 0 50 5t50 5q59 0 60-80 0-8-2-24.5t-2-24.5q-2-16-4-127-2-84-2-172V328q0-102 2-121 10-92 55-92 10 0 51 10 10 4 31 4 78 0 78-68 0-29-25.5-49T539-8q-33 0-99.5 9T340 10q-53 0-119-8Q141-8 115-8 33-8 33 61zm157 1184q0 47 34 80t81 33 81-33 34-80-34-81-81-34-81 34-34 81z"/><glyph unicode="j" horiz-adv-x="595" d="M-231-201q0 51 29.5 85t74.5 34q39 0 66.5-25.5T-33-168q0-43-37-80 55-41 113-41 115 0 165 67.5T258-4l2 643q0 180-10 222t-55 42q-23 0-58-8-18-6-37-6-66 0-65 65 0 68 86 68 31 0 53-2 66-6 92-6 16 0 51 5t52 5q59 0 59-66 0-10-2-40-2-37-2-60-2-33-6-147-4-129-4-199V49q0-123-11-182-18-96-73-164-98-119-275-119-123 0-204.5 61.5T-231-201zm428 1446q0 47 33.5 80t80.5 33 82-34 35-79q0-47-35-81t-82-34-80.5 34-33.5 81z"/><glyph unicode="k" horiz-adv-x="1267" d="M18 59q0 68 78 68 16 0 39-4 33-6 45-6 49 0 56 78l6 79v828q-4 111-14.5 140.5T184 1272q-10 0-39-4-29-10-57-11-68 0-68 64 0 70 80 70 41 0 58-2 51-6 67-7 16 0 48 5.5t46 5.5h15q66 0 65-84V518l351 328q18 16 18 37 0 20-27 20-20 0-59-8t-59-8q-72 0-72 65 0 72 90 72 23 0 57-4 141-16 215-16 41 0 70 4l84 12q29 4 47 4 100 0 100-70 0-65-67-65h-2q-16 0-46 4t-46 4q-51 0-107-51L731 649q-23-20-22-33 0-10 16-30l262-340q100-129 143-129 10 0 34 5t38 5q74 0 74-66 0-69-91-69h-3q-37 0-110 8T963 8q-33 0-95.5-8T774-8q-78 0-78 69 0 66 74 66 20 0 33-2 37-10 47-10 18 0 18 14v6q-2 2-2 4l-20 29-27 39-205 272q-20 27-32 27-8 0-31-21L399 350v-47q0-98 2-110 10-72 58-72 20 0 34.5 3t38.5 3q70 0 70-68 0-67-76-67h-2q-35 0-105.5 9T311 10q-47 0-108-8Q125-8 98-8 18-8 18 59z"/><glyph unicode="l" horiz-adv-x="632" d="M18 66q0 63 70 63h14q12-2 19-2 51-8 59-8 37 0 46.5 31.5T238 315l2 144 6 317-2 365q-2 61-6 82-14 47-58 47-6 0-53-8-23-4-37-5-70 0-70 66 0 68 82 68 23 0 39-2l49-7q33-4 56-4 20 0 61 7.5t62 7.5q47 0 47-60 0-20-2-30-15-158-15-447l2-637q2-104 56-104 12 0 51 10 25 4 33 4 67 0 67-68 0-69-82-69h-2q-33 0-104.5 8T309 8q-33 0-98.5-8T115-8h-11Q18-8 18 66z"/><glyph unicode="m" horiz-adv-x="1900" d="M33 61q0 63 78 64h12q8-2 12-2l51-10q2-2 9-2 55 0 59 100l4 117v313q0 174-9 217t-50 43q-8 0-58-10-20-4-32-4-76 0-76 65 0 70 84 70 23 0 61.5-4t67.5-4q10 0 22 2h15l49 6h6q49 0 49-59v-60q74 88 139.5 122t163.5 34q201 0 295-156 70 86 141.5 121t184.5 35q117 0 209-49 102-55 141-156 27-68 27-213V442l-2-153q0-84 2-103 10-73 52-73h1q14 0 42.5 6t43.5 6q72 0 71-62 0-71-79-71h-2q-31 0-93.5 7T1628 6q-35 0-101.5-7T1425-8q-86 0-86 71 0 61 66 62 8 0 41-4 12-4 33-4 35 0 44 34.5t11 174.5l2 125v135q0 141-21.5 205.5t-81 101.5-135.5 37q-145 0-202-101-45-80-45-278V406q0-193 9-241t48-48q12 0 35.5 5t36.5 5q29 0 48-19.5t19-48.5q0-67-93-67h-3q-31 0-91.5 8T969 8q-43 0-94.5-8T784-8q-84 0-84 69 0 63 62 64 23 0 35-4 29-6 43-6 49 0 51 104l2 96q2 45 2 88 2 37 2 39v170q0 178-48 248t-171 70q-135 0-207-99-59-80-59-278V281q0-82 2-97 8-69 44-69h1q10 0 43 8 4 0 12 2h14q80 0 80-68 0-65-89-65h-3q-35 0-86 6-70 8-119 8-25 0-90-6-88-8-106-8-82 0-82 69z"/><glyph unicode="n" d="M33 61q0 66 65 66 10 0 38-6t54-6q61 0 64 118l4 228v248l-4 71q-4 70-17.5 95.5T190 901q-14 0-41.5-5t-42.5-5q-74 0-73 65 0 68 92 68 12 0 20-2l76-8q33 0 58 4 53 4 55 4 59 0 59-61v-58q123 156 328 156 111 0 209-56.5T1063 862q29-70 29-182V291q0-88 2-105 10-69 54-69h1q18 0 48 5t42 5q27 0 46.5-18.5T1305 63q0-31-25-51t-59-20q-29 0-94.5 8T1004 8q-53 0-89-4Q813-8 807-8q-82 0-82 71 0 63 70 64 16 0 36-4 39-8 50-8 49 0 53 112l4 105 2 125v155q0 109-10 150-18 78-80 121-68 47-154 47-164 0-235-117-49-80-49-272V268q0-90 12-122.5t45-32.5q16 0 45 8t47 8q63 0 64-70 0-67-80-67h-2Q527-8 436 4q-45 6-100 6-43 0-115-8Q131-8 119-8 33-8 33 61z"/><glyph unicode="o" horiz-adv-x="1118" d="M78 512q0 250 130 398.5T557 1059q223 0 352-145.5T1038 518 905 116.5 551-35q-215 0-344 148.5T78 512zm168 0q0-193 81-302.5T553 100q150 0 234.5 109.5T872 514q0 410-311 410-143 0-225-100.5T246 539v-27z"/><glyph unicode="p" horiz-adv-x="1228" d="M18-295q0 66 70 66 12 0 39-7 35-8 51-8 39 0 48.5 40T238 18l2 791q-2 94-54 94-14 0-43.5-7T96 889q-76 0-76 67 0 66 91 66 23 0 49-2 51-4 76-4 18 0 53 3t51 3q51 0 51-57v-66q115 160 314 160 205 0 325.5-141.5T1151 535q0-260-128-415T680-35Q502-35 391 90V-80q0-78 4-100 12-63 60-64 14 0 42.5 6.5T541-231q65 0 65-66 0-70-86-70-31 0-92 9-45 6-135 6-49 0-82-4-82-10-109-11-35 0-59.5 21.5T18-295zm381 756q0-137 22.5-199.5t89.5-112T676 100q147 0 228 107.5T985 514q0 410-291 410-98 0-175-59.5T422 715q-18-80-21-195 0-8-2-31v-28z"/><glyph unicode="q" horiz-adv-x="1155" d="M80 516q0 250 119.5 396.5T524 1059q190 0 318-154-4 41-4 39 0 88 69 88 70 0 70-106v-43l-8-244V248l6-293q2-125 14-163t53-38q-2 0 50 10 20 4 32 5 66 0 66-68t-76-68q-37 0-110.5 6.5T893-354t-109.5-6.5T676-367q-76 0-76 68 0 66 70 66 25 0 65-9 20-4 27-4 45 0 53 103 2 12 2 133v92Q702-35 535-35q-205 0-330 150.5T80 516zm166 4q0-199 77.5-309.5T541 100q104 0 181 66.5T811 334q4 35 4 125v57q-4 137-18 197-27 100-109 159-70 51-156 52-135 0-210.5-106.5T246 520z"/><glyph unicode="r" horiz-adv-x="1005" d="M31 63q0 63 78 64 20 0 30-2l31-6q20-4 29-4 51 0 55 94l4 104-6 465q-6 121-62 121-16 0-44.5-6t-45.5-6q-68 0-67 65 0 72 88 72 20 0 61-5t62-5q16 0 53 4 16 4 39 4 53 0 53-57v-56q106 150 285 150 143 0 232-81t89-208q0-90-45-146.5T831 567q-47 0-79.5 29T719 666q0 33 24.5 58.5T801 750q6 0 26-7 12 25 13 45 0 59-52.5 100.5T657 930q-160 0-213-144-32-85-32-256V385q0-137 2-154 10-116 62-116h1q27 0 55 8 23 6 39 6 66 0 66-66 0-71-82-71h-10q-31 0-93.5 7T358 6q-82 0-129-4L115-8Q31-8 31 63z"/><glyph unicode="s" horiz-adv-x="1007" d="M88 33v-1q1 0 12 107 4 29 4 58 0 49-8 92t-8 67q0 72 66 72 43 0 54-20.5T221 299t92-143.5T543 100q100 0 165.5 51.5T774 281q0 139-221 161-211 23-321.5 83.5T121 737q0 143 108.5 232.5T512 1059q137 0 229-72v8q0 76 66 76 67 0 67-63 0-14-4-64-8-41-8-82 0-25 7.5-72t7.5-71q0-78-68-78-66 0-68 66l-2 67q-2 61-70.5 105.5T508 924q-94 0-157.5-48.5T287 756q0-131 180-156l119-16q348-47 348-289 0-147-112.5-238.5T526-35q-170 0-295 96 2-20 2-38 0-74-69-74-76 0-76 84z"/><glyph unicode="t" horiz-adv-x="819" d="M14 944q0 29 21.5 51.5T84 1018h80q35 0 35 39v211q0 78 80 78 74 0 73-78v-219q0-31 37-31h223q78 0 78-72 0-76-84-76H381q-29 0-29-43V324q0-215 142-215 143 0 149 174l4 131q2 84 74 84t72-95q0-223-58-311Q657-27 479-27 315-27 246 78q-51 76-51 258v491q0 43-39 43H90q-33 0-54.5 21.5T14 944z"/><glyph unicode="u" horiz-adv-x="1267" d="M0 956q0 66 88 66 20 0 60-4t61-4q18 0 63 6 31 4 35 4 63 0 64-78v-43l-2-133-7-152V485q0-178 29-256 47-129 225-129 88 0 156 40t94 106q33 80 33 303v246q-10 98-53 98-23 0-37-4h-25q-72 0-71 63 0 72 80 72 18 0 56-4t56-4q16 0 49 3t50 3q61 0 61-66 0-29-4-45-10-78-10-229V367q0-125 2-140 10-108 56-108h1q14 0 41 5t41 5q70 0 70-68 0-69-84-69h-2q-18 0-54 4-51 6-63 6-6 0-43-4-25-6-43-6-58 0-58 59v64Q806-35 594-35q-242 0-336 150-41 66-45 153-2 43-2 181v169q0 281-59 281-12 0-39-5t-41-5q-72 0-72 67z"/><glyph unicode="v" horiz-adv-x="1230" d="M-23 946q0 74 95 74 16 0 24-2l86-8q43-4 86-4 35 0 103 6l67 6q10 2 29 2 90 0 90-70 0-65-76-65h-2q-25 0-35 2-39 8-49 8-33 0-33-29 0-14 9-41l14-45 240-639 231 639q20 57 21 74 0 45-43 45-16 0-48-7t-49-7q-68 0-67 67 0 72 98 72h16q10-2 17-2l86-12q29-4 59-4 41 0 135 10 57 6 82 6 88 0 88-68 0-67-69-67h-2q-23 0-33 4-31 6-43 6-37 0-76-98L739 61q-37-94-125-94-84 0-120 94L199 819q-29 76-68 76-14 0-43-6t-43-6q-68 0-68 63z"/><glyph unicode="w" horiz-adv-x="1640" d="M-23 952q0 72 93 72 16 0 22-2l88-12q29-4 76-4 57 0 131 8 92 10 107 10 90 0 90-70 0-67-74-67h-2q-14 0-51 4-27 8-51 8-53 0-54-61 1-42 15-101l149-622 160 721q25 115 54.5 152.5T821 1026q63 0 93-39t55-151l153-721 152 622q14 59 14 103v4q0 55-47 55-18 0-53-7t-53-7q-76 0-76 67 0 72 100 72 14 0 31-2l84-10q33-4 102-4 55 0 107 6l67 8q8 2 23 2 88 0 88-70 0-67-66-67h-2q-23 0-34 4-33 4-37 4-55 0-115-227l-139-527q-25-96-57.5-134T1120-31q-109 0-145 172L821 870 662 154Q639 52 604 9.5T510-33q-96 0-129 127L184 831q-18 66-57 66-12 0-37-6-33-4-45-4-68 0-68 65z"/><glyph unicode="x" d="M6 61q0 68 74 68 12 0 36.5-3t37.5-3q38 0 110 82l285 325-285 336q-29 33-69 33-16 0-25-2l-35-8q-8-2-29-2-68 0-67 65 0 70 84 70h6q2 0 102-8 51-4 86-4t100.5 6 98.5 6q84 0 84-70 0-65-76-65h-2q-16 0-30 4l-31 8h-12q-8 0-9-4 4-12 19-29l186-225 195 225q18 20 18 29-2 4-10 4-10 0-33.5-6t-36.5-6q-73 0-73 67 0 70 86 70-4 0 108-10 45-4 96-4t108.5 6 82.5 6q90 0 90-70 0-67-68-67h-2q-16 0-47 8t-47 8q-49 0-135-98L739 532l320-376q29-35 69-35 12 0 38 4t38 4q74 0 74-66 0-71-84-71h-18l-80 10q-33 4-99 4-55 0-110-6l-74-8h-22q-96 0-97 65 0 72 76 72 27 0 76-8 4-2 14-2 20 0 21 16 0 6-7 12l-6 9-227 266-231-266q-14-16-15-25 0-10 21-10 14 0 42.5 4t43.5 4q88 0 88-72 0-65-85-65h-32l-82 8q-61 6-108 6-37 0-88-6-70-8-103-8Q6-8 6 61z"/><glyph unicode="y" horiz-adv-x="1230" d="M-53-199q0 63 36.5 103.5T80-55q47 0 77.5-28t30.5-69q0-66-59-84 31-45 117-45 109 0 195.5 81T528-18q0 51-55 190L248 741l-25 66q-35 92-80 92-12 0-43.5-6T57 887q-72 0-71 65 0 70 94 70 31 0 47-2l82-10h16q14-2 25-2 74 0 158 8 63 6 84 6 86 0 86-68 0-67-76-67h-2q-12 0-39 5t-39 5q-29 0-29-29 0-16 8-41l236-692 250 682q10 29 10 45 0 35-47 35-25 0-39-4-33-4-43-4-68 0-68 65 0 70 88 70 12 0 41-4l74-10q29-4 62-4 35 0 102.5 8t101.5 8q88 0 88-68 0-65-65-65h-2q-20 0-31 4-27 6-37 6-39 0-80-104L764 98q-92-231-174-336-139-178-348-178-125 0-210 63.5T-53-199z"/><glyph unicode="z" horiz-adv-x="1081" d="M72 109q0 53 49 102l667 676H475q-154 0-192.5-9.5T244 829q0-16 4-36 10-53 10-101 0-78-68-78-69 0-69 88 0 41 2 56 8 61 8 88 0 20-7 60t-7 61q0 63 102 63 33 0 88-2 63-4 88-4l123-2h348q133 0 133-94 0-43-77-121L258 137h487q121 0 121 70v39q0 35-4 59-4 78-4 74 0 35 20.5 58.5T930 461q65 0 65-76 0-40-4-74-8-74-8-106 0-23 5-66t5-65q0-78-86-78h-4L778 0H188q-51 0-83.5 30.5T72 109z"/><glyph unicode="{" horiz-adv-x="1024" d="M297 444v121q117 33 117 183v360q0 150 68.5 215.5T702 1389h58v-129q-119-2-158-37t-39-142V739q0-100-26.5-150T438 500q70-37 97.5-91.5T563 258V-72q0-113 39-148.5T760-256v-129h-60q-156 0-221 68.5T414-84v338q0 88-27 131t-90 59z"/><glyph unicode="|" horiz-adv-x="1024" d="M436-512v2048h152V-512H436z"/><glyph unicode="}" horiz-adv-x="1024" d="M287-256q119 2 157.5 37T483-78v342q0 98 27 149.5t98 90.5q-70 37-97.5 91T483 745v330q0 113-38.5 149T287 1260v129h57q156 0 222.5-69t66.5-233V750q0-162 117-191V438q-117-33-117-182v-360q0-150-67.5-215.5T344-385h-57v129z"/><glyph unicode="~" horiz-adv-x="1366" d="M190 1249q63 131 126 183.5t155 52.5q78 0 229-70 137-63 199-63 102 0 184 137l93-53q-115-229-295-230-72 0-172 45l-115 52q-82 36-133 36-100 0-182-147z"/><glyph unicode="¡" horiz-adv-x="858" d="M301 930q0 53 37 91t90 38 91-38 38-91-38-91-91-38-90 38-37 91zm37-1155q2 25 8 178 6 172 6 223l-2 223 2 160q2 94 4 105 12 49 72 49 74 0 74-103v-37l2-620q2-147 6-191v-38q0-111-86-111t-86 121v41z"/><glyph unicode="¢" d="M180 690q0 182 81 316.5T485 1198q49 20 129 33v213q0 57 58 57 57 0 57-57v-209q109-14 182-43 86-35 141.5-110.5T1108 922q0-76-46-128.5T948 741q-49 0-81.5 31T834 848q0 41 24.5 69.5T915 946h17q-6 59-63.5 102.5T729 1098V307q113 12 162 72 33 41 72 170 20 61 77 61 35 0 58.5-24.5T1122 524q0-92-73.5-188T874 203q-51-18-145-39V-63q0-57-57-58-57 0-58 58v227q-143 23-227 82-207 145-207 444zm176 4q0-174 67.5-275.5T614 307v791q-258-53-258-404z"/><glyph unicode="£" horiz-adv-x="1490" d="M2 188q0 106 85 175t216 69q137 0 330-106 8 47 8 69 0 88-104 285l-19 35H217q-61 0-61 59 0 61 59 62h234q-45 100-46 190 0 170 120 277.5T834 1411q166 0 274.5-84t108.5-211q0-66-36-110.5t-89-44.5q-43 0-73 29.5t-30 70.5q0 55 58 82 16 8 16 18 0 25-37 53-82 66-195 66-119 0-194.5-68.5T561 1034q0-51 21-92l45-90 6-16h418q23 0 40-18.5t17-43.5q0-59-55-59H698q90-145 90-297 0-86-24-166 207-152 364-152 96 0 152.5 54.5T1337 301q0 76-43 122t-114 46q-47 0-87-25.5t-49-60.5l-8-35q-12-49-67-49-72 0-72 76 0 94 82 161.5t197 67.5q139 0 226-84t87-217q0-145-102.5-245.5T1137-43q-156 0-279 72l-160 92Q553-45 328-45 185-45 93.5 20.5T2 188zm156 13q0-49 48-80t124-31q156 0 235 109-147 96-272 96-57 0-96-26.5T158 201z"/><glyph unicode="¤" horiz-adv-x="1366" d="M109 1221l84 86 194-195q145 104 297 105 152 0 293-103l192 191 86-84-194-193q104-141 104-293 0-143-102-286l194-197-83-84-195 194Q842 258 686 258q-147 0-297 102L197 168l-84 84 192 192Q201 579 201 737q0 152 102 289zm231-484q0-143 100.5-243.5T684 393q141 0 241.5 100.5T1026 737 925.5 981.5 682 1083q-141 0-241.5-101T340 737z"/><glyph unicode="¥" horiz-adv-x="1454" d="M16 1300q0 74 80 74 33 0 82-8 96-16 168-16 55 0 76 4 10 2 80 14 35 6 59 6 84 0 84-71 0-70-98-70-4 0-21 2h-30q-8 2-21 2-25 0-24-14 0-10 10-31l272-533 277 533q10 20 10 31 0 20-27 20-16 0-30-2-31-10-78-10-82 0-82 72t80 71q27 0 61-6 92-16 164-16t178 16q39 6 70 6 80 0 80-69 0-68-76-68-29 0-45.5 3t-42.5 3q-43 0-68-29-14-12-43-65L973 809h360q53 0 53-59 0-57-53-58H909l-94-170h518q53 0 53-59 0-57-53-57H811v-35q0-135 4-160 18-92 100-92 16 0 50 5t51 5q63 0 63-66 0-74-92-73h-12q-8 2-14 2L848 6q-63 8-125 8-66 0-125-8L494-8q-4 0-15-2h-16q-88 0-88 71 0 68 65 68 16 0 48-5t49-5q63 0 81.5 40T641 338l2 68H160q-63 0-64 57 1 59 64 59h471l-92 170H160q-63 0-64 58 0 59 64 59h315l-176 321q-33 59-43 72-29 33-70 33-14 0-41.5-2t-42.5-2q-86 0-86 69z"/><glyph unicode="§" d="M238 33q0 76 37.5 121T377 199q49 0 85-35t36-82q0-61-72-100-18-10-18-21 0-27 47-55 86-51 186-51 102 0 165.5 49T870 33q0 61-33.5 100T713 217l-160 78q-143 70-199 115-102 84-102 194 0 150 178 285-109 102-108 215 0 139 100 223t268 84q160 0 266.5-74.5T1063 1153q0-57-34-93t-87-36q-45 0-74.5 27.5T838 1124q0 55 69 88-66 72-205 72-96 0-153-43t-57-117q0-72 47-111.5T786 881q137-63 194.5-106.5T1067 670q18-41 18-90 0-152-178-287 76-63 103.5-116.5T1038 49q0-145-106.5-234T651-274q-180 0-296.5 87T238 33zm186 608q0-57 45-98t178-105q74-35 162-84 109 96 109 187 0 57-45 98t-168 96q-113 51-177 86l-12-12q-92-92-92-168z"/><glyph unicode="¨" horiz-adv-x="1005" d="M207 1284q0 47 33.5 81t81.5 34q47 0 79.5-34t32.5-81-32.5-81-79.5-34-81 34-34 81zm364 0q0 47 34 81t81 34 80-34 33-81-34-81-79-34q-47 0-81 34t-34 81z"/><glyph unicode="©" horiz-adv-x="1619" d="M82 682q0 303 213 516t514 213q303 0 516-213t213-516q0-301-214-514T809-45 295 168 82 682zm108 0q0-258 181.5-441.5T809 57t437 183.5T1427 682q0 260-181 443.5T809 1309t-437.5-183.5T190 682zm236-8q0 199 106.5 321.5T813 1118q143 0 223-88-2 4-3 14.5t-1 24.5q0 47 47 47 49 0 49-57 0-18-4-58-6-59-6-83 0-18 4-66l4-47v-12q0-61-53-62-53 0-53 60v45q0 84-56.5 136T813 1024q-121 0-190.5-91T553 684q0-162 70.5-252T819 342q217 0 219 205 0 63 56 63 59 0 59-65 0-131-97.5-215T809 246q-174 0-278.5 116.5T426 674z"/><glyph unicode="ª" horiz-adv-x="870" d="M141 608v68h635v-68H141zm2 357q0 147 228 170 92 10 118.5 25.5T516 1219q0 86-115 86-51 0-90-27-6-2-12-12-2 0-2-2v-2l8-7q18-14 19-41 0-55-66-55-76 0-76 72 0 63 64.5 107t154.5 44q215 0 215-192V920q6-35 33-35 33 0 33 61v51q0 41 43 41t43-57v-6l-2-62q-4-108-121-108-86 0-117 67l-2-2q-53-70-174-69-94 0-151.5 45T143 965zm105 2q0-82 110-82 72 0 114 38t42 101v59q-31-25-143-34-123-12-123-82z"/><glyph unicode="«" horiz-adv-x="708" d="M88 545q0 8 6 20l203 324q12 20 31 20 27 0 26-30 0-17-4-29L246 547l108-322q6-12 6-22 0-31-26-31-23 0-35 21L92 532q-4 4-4 13zm260 2q0 6 8 18l203 324q12 20 29 20 29 0 28-28 0-19-6-31L508 547l108-322q4-12 5-22 0-31-27-31-23 0-33 21L352 532q-4 8-4 15z"/><glyph unicode="¬" horiz-adv-x="1024" d="M68 412v135h888V0H805v412H68z"/><glyph unicode="­" horiz-adv-x="1124" d="M94 420v127h936V420H94z"/><glyph unicode="®" horiz-adv-x="1024" d="M102 1147q0 170 121 289.5T512 1556q170 0 290-119.5T922 1147q0-168-120-289T512 737q-168 0-289 121t-121 289zm62 0q0-143 102.5-245.5T512 799q145 0 246.5 102.5T860 1147q0 145-101.5 246.5T512 1495q-143 0-245.5-101.5T164 1147zm137-170q0 33 31 33 10 0 18-2h10q18 0 19 30v236q0 8-4 22 0 2-2 6.5t-13 4.5q-12-2-10-2-8-2-18-2-31 0-31 32 0 33 39 33h10l29-4h14q8-2 15-2-2 0 41 2l43 2q14 2 40 2 144 0 144-113 0-70-60-94 33-25 33-88v-37q0-29 15-28 14 0 14 39v40q0 45 33 46 35 0 34-35 0-8-2-17v-53q0-84-86-84-82 0-82 82l3 18v35q0 35-14.5 43t-51.5 8h-53q-6 0-6-4v-86q0-33 16-32 6 0 10 2h19q31 0 30-31 0-35-39-35-2 0-10 2l-30 4q-6 0-17 2h-14q-6 0-18.5-2t-20.5-2l-29-2q-4-2-12-2-37 0-37 33zm152 219q0-2 4-2h55q90 0 90 59 0 53-78 54-71 0-71-25v-86z"/><glyph unicode="¯" horiz-adv-x="1005" d="M203 1284q0 66 76 66h450q74 0 74-60 0-29-21.5-48t-52.5-19H279q-76 0-76 61z"/><glyph unicode="°" horiz-adv-x="1024" d="M221 1087q0 117 85 200t206 83 206-83 85-200q0-119-85-201.5T512 803t-206 83-85 201zm98 0q0-78 56.5-134T512 897t136.5 56.5T705 1087q0 78-56.5 133.5T512 1276t-136.5-55.5T319 1087z"/><glyph unicode="±" horiz-adv-x="1024" d="M41 111v139h942V111H41zm0 598v139h395v371h152V848h395V709H580V340H436v369H41z"/><glyph unicode="´" horiz-adv-x="1007" d="M373 1196q0 27 43 53l258 162q33 20 61 21 72 0 72-70 0-51-72-82l-293-127q-25-6-26-6-43 0-43 49z"/><glyph unicode="¶" horiz-adv-x="1189" d="M43 999q0 117 60.5 207t161 125 231.5 35h551v-119H924V-201H793v1448H580V-201H449v846h-15q-10-2-16-2-166 0-270.5 99.5T43 999z"/><glyph unicode="·" horiz-adv-x="280" d="M0 723q0 57 41 99t98 42q59 0 100.5-41T281 723q0-57-41.5-99T139 582q-57 0-98 42T0 723z"/><glyph unicode="¸" horiz-adv-x="1007" d="M319-295q0 18 14.5 33.5T365-246q23 0 36-16l23-25q35-39 104-39 106 0 107 78 0 72-92 72-23 0-47-8l-50-17q-6-2-22-2-27 0-27 23 0 8 11 33L469 0h100l-39-98q37 6 54 6 74 0 126-45t52-109q0-72-65.5-121T535-416q-84 0-150 37t-66 84z"/><glyph unicode="º" horiz-adv-x="870" d="M164 608v68h541v-68H164zm0 484q0 133 72.5 211.5T434 1382q127 0 200-77.5t73-210.5q0-131-76-212t-201-81q-121 0-193.5 78.5T164 1092zm104 0q0-96 43-151.5T430 885q170 0 170 209 0 204-164 204-160 0-168-192v-14z"/><glyph unicode="»" horiz-adv-x="708" d="M86 203q0 4 6 22l109 322L96 850q-4 12-4 29 0 31 27 30 18 0 31-20l202-324q8-12 8-18 0-8-6-15L147 193q-12-20-32-21-29 0-29 31zm262 0q0 10 4 22l109 322-103 303q-4 8-4 29 0 31 27 30 16 0 29-20l204-324q6-12 7-18 0-6-5-15L408 193q-10-20-33-21-27 0-27 31z"/><glyph unicode="¿" horiz-adv-x="1228" d="M76 0q0 219 217 330 37 18 94 43 119 51 163 98t44 127q0 61 16.5 84t61.5 23q86 0 86-107 0-96-51-168-63-88-224-174-150-80-192.5-128T248-6q0-113 92-181.5T584-256q154 0 259 73T948-4q0 53-53 86 2-8 2-21 0-29-22.5-48T819-6q-88 0-88 90 0 59 47 99t117 40q90 0 147.5-60.5T1100 8q0-174-145.5-284.5T580-387 213.5-281.5 76 0zm450 930q0 53 37 91t90 38 90-38 37-91-36.5-91-90.5-38q-53 0-90 38t-37 91z"/><glyph unicode="À" horiz-adv-x="1527" d="M-16 57q0 72 77 72 16 0 25-2h27q55 0 84 43 12 16 41 96l380 1030q33 86 130 86 94 0 124-86l367-1015q35-96 63.5-127t81.5-31q16 0 25 2l57 4q78 0 78-66 0-70-78-69-23 0-59 4-129 14-193 14-76 0-245-16-43-4-66-4-82 0-82 69 0 70 90 70 18 0 54-4t55-4q68 0 67 55 0 8-16 53l-74 201q-12 33-25.5 41t-53.5 8H553q-41 0-56.5-14T457 389l-60-158q-8-23-8-43 0-66 80-65 20 0 58 4t57 4q84 0 84-72 0-68-93-67-16 0-45 4L428 10q-29 4-94 4-72 0-101-4L147-2q-57-8-84-8-80 0-79 67zm534 1624q0 82 78 82 31 0 63-20l279-174q51-33 51-62 0-47-51-47-16 0-31 6l-313 136q-76 33-76 79zm29-1046q0-18 31-19h325q25 0 25 17 0 4-4 16l-185 565-188-565q-4-12-4-14z"/><glyph unicode="Á" horiz-adv-x="1527" d="M-16 57q0 72 77 72 16 0 25-2h27q55 0 84 43 12 16 41 96l380 1030q33 86 130 86 94 0 124-86l367-1015q35-96 63.5-127t81.5-31q16 0 25 2l57 4q78 0 78-66 0-70-78-69-23 0-59 4-129 14-193 14-76 0-245-16-43-4-66-4-82 0-82 69 0 70 90 70 18 0 54-4t55-4q68 0 67 55 0 8-16 53l-74 201q-12 33-25.5 41t-53.5 8H553q-41 0-56.5-14T457 389l-60-158q-8-23-8-43 0-66 80-65 20 0 58 4t57 4q84 0 84-72 0-68-93-67-16 0-45 4L428 10q-29 4-94 4-72 0-101-4L147-2q-57-8-84-8-80 0-79 67zm518 1450q0 29 51 62l278 174q33 20 64 20 78 0 78-82 0-47-76-79l-313-136q-14-6-31-6-51 0-51 47zm45-872q0-18 31-19h325q25 0 25 17 0 4-4 16l-185 565-188-565q-4-12-4-14z"/><glyph unicode="Â" horiz-adv-x="1527" d="M-16 57q0 72 77 72 16 0 25-2h27q55 0 84 43 12 16 41 96l380 1030q33 86 130 86 94 0 124-86l367-1015q35-96 63.5-127t81.5-31q16 0 25 2l57 4q78 0 78-66 0-70-78-69-23 0-59 4-129 14-193 14-76 0-245-16-43-4-66-4-82 0-82 69 0 70 90 70 18 0 54-4t55-4q68 0 67 55 0 8-16 53l-74 201q-12 33-25.5 41t-53.5 8H553q-41 0-56.5-14T457 389l-60-158q-8-23-8-43 0-66 80-65 20 0 58 4t57 4q84 0 84-72 0-68-93-67-16 0-45 4L428 10q-29 4-94 4-72 0-101-4L147-2q-57-8-84-8-80 0-79 67zm405 1450q0 23 47 56l277 194q23 16 43 17 20 0 43-17l278-194q45-31 45-56 0-39-43-39-14 0-39 9-8 4-39 18l-245 115-246-115q-35-16-37-18-25-8-37-9h-2q-45 0-45 39zm158-872q0-18 31-19h325q25 0 25 17 0 4-4 16l-185 565-188-565q-4-12-4-14z"/><glyph unicode="Ã" horiz-adv-x="1527" d="M-16 57q0 72 77 72 16 0 25-2h27q55 0 84 43 12 16 41 96l380 1030q33 86 130 86 94 0 124-86l367-1015q35-96 63.5-127t81.5-31q16 0 25 2l57 4q78 0 78-66 0-70-78-69-23 0-59 4-129 14-193 14-76 0-245-16-43-4-66-4-82 0-82 69 0 70 90 70 18 0 54-4t55-4q68 0 67 55 0 8-16 53l-74 201q-12 33-25.5 41t-53.5 8H553q-41 0-56.5-14T457 389l-60-158q-8-23-8-43 0-66 80-65 20 0 58 4t57 4q84 0 84-72 0-68-93-67-16 0-45 4L428 10q-29 4-94 4-72 0-101-4L147-2q-57-8-84-8-80 0-79 67zm438 1481q0 74 64.5 129t148.5 55q55 0 147-30l80-27q43-14 68-14 57 0 90 35l29 30q10 10 24 10 33 0 33-32 0-70-65.5-123T889 1518q-55 0-139 28-115 39-156 39-70 0-96-39l-17-24q-18-18-30-19-29 0-29 35zm125-903q0-18 31-19h325q25 0 25 17 0 4-4 16l-185 565-188-565q-4-12-4-14z"/><glyph unicode="Ä" horiz-adv-x="1527" d="M-16 57q0 72 77 72 16 0 25-2h27q55 0 84 43 12 16 41 96l380 1030q33 86 130 86 94 0 124-86l367-1015q35-96 63.5-127t81.5-31q16 0 25 2l57 4q78 0 78-66 0-70-78-69-23 0-59 4-129 14-193 14-76 0-245-16-43-4-66-4-82 0-82 69 0 70 90 70 18 0 54-4t55-4q68 0 67 55 0 8-16 53l-74 201q-12 33-25.5 41t-53.5 8H553q-41 0-56.5-14T457 389l-60-158q-8-23-8-43 0-66 80-65 20 0 58 4t57 4q84 0 84-72 0-68-93-67-16 0-45 4L428 10q-29 4-94 4-72 0-101-4L147-2q-57-8-84-8-80 0-79 67zm450 1575q0 55 39 93t94 38q53 0 92-37.5t39-93.5q0-55-39-93t-92-38q-55 0-94 38t-39 93zm113-997q0-18 31-19h325q25 0 25 17 0 4-4 16l-185 565-188-565q-4-12-4-14zm256 997q0 53 39 92t94 39q53 0 92-37.5t39-93.5q0-53-39-92t-92-39q-55 0-94 39t-39 92z"/><glyph unicode="Å" horiz-adv-x="1527" d="M-16 57q0 72 77 72 16 0 25-2h27q55 0 84 43 12 16 41 96l380 1030q33 86 130 86 94 0 124-86l367-1015q35-96 63.5-127t81.5-31q16 0 25 2l57 4q78 0 78-66 0-70-78-69-23 0-59 4-129 14-193 14-76 0-245-16-43-4-66-4-82 0-82 69 0 70 90 70 18 0 54-4t55-4q68 0 67 55 0 8-16 53l-74 201q-12 33-25.5 41t-53.5 8H553q-41 0-56.5-14T457 389l-60-158q-8-23-8-43 0-66 80-65 20 0 58 4t57 4q84 0 84-72 0-68-93-67-16 0-45 4L428 10q-29 4-94 4-72 0-101-4L147-2q-57-8-84-8-80 0-79 67zm563 578q0-18 31-19h325q25 0 25 17 0 4-4 16l-185 565-188-565q-4-12-4-14zm0 1018q0 82 58.5 140t142.5 58 141-57 57-141q0-82-58-139.5T748 1456q-84 0-142.5 57.5T547 1653zm98 0q0-41 31-71t72-30 70.5 30 29.5 71q0 43-29.5 72.5T748 1755q-43 0-73-29.5t-30-72.5z"/><glyph unicode="Æ" horiz-adv-x="2086" d="M-98 59q0 70 75 70 12 0 39-4t39-4q39 0 88 59l29 35 688 1092q37 57 92 57 27 0 66-2 76-4 217-4h92q45 0 189 4l323 12q94-4 94-96v-10q-2-6-2-11l-8-86q-6-66-6-122 0-59 4-82 8-98 8-93 0-80-74-79-74 0-73 104 0 8 2 33v43q2 16 2 49 0 143-54.5 179t-273.5 36q-174 0-221-8t-59-53q-6-18-7-86V801q0-29 9.5-37t42.5-8h147q119 0 119 96 0 20-5 61t-5 62q0 84 69 84 72 0 72-80 0-41-6-84-16-117-17-223 0-92 17-209 6-43 6-70 0-78-72-78t-71 74q0 27 6 63.5t6 71.5q0 98-121 99h-149q-47 0-48-39V252q0-80 20.5-99.5T1300 133h267q158 0 204 34t46 152q0 53-5 97v43q0 117 72 116 74 0 74-86 0-41-5-123.5t-5-123.5q0-29 2-56l6-77V92q0-102-109-102-16 0-121 6-174 10-518 10-201 0-309-8l-108-8q-86 0-86 71 0 72 100 72-12 0 39-2 39-2 51-2 78 0 100 61 10 29 11 129v236q0 45-10.5 56.5T956 623H625q-25-4-36-19.5T551 545l-53-90-62-111-55-92q-12-20-39-64-4-6-12-19t-8-22q0-23 38-22 16 0 43 5t41 5q80 0 80-72 0-74-84-73-23 0-57 6-106 18-166 18-53 0-164-16-55-8-78-8-74 0-73 69zm780 697h289q33 0 35 45l12 448q0 12-8 13-11-1-17-13z"/><glyph unicode="Ç" d="M78 668q0 334 169 538.5T692 1411q227 0 371-174l-2 23v22q-2 12-2 14-4 45-4 41 0 70 65 70 70 0 70-86 0-16-8-98-10-102-11-142 0-55 7-112l8-78v-21q0-92-74-92-80 0-78 88l2 74q4 147-92 239.5T692 1272q-203 0-317.5-155.5T260 686q0-281 118-437.5T707 92q115 0 206 55.5T1040 293q25 59 25 160 0 94 78 94 84 0 84-94 0-242-183-385Q915-34 698-45l-32-90q57 8 84 8 86 0 142-48t56-120q0-82-73.5-136T686-485q-96 0-172 35.5T438-369q0 47 41 47 14 0 33-12l33-22q53-37 145-37 121 0 121 90 0 82-109 82-25 0-66.5-12.5T573-246q-29 0-28 35 0 20 14 55l47 115Q360-12 219 178.5T78 668z"/><glyph unicode="È" horiz-adv-x="1378" d="M39 63q0 66 63 66 10 0 56-4 23-6 43-6 104 0 104 153v822q0 152-104 151-29 0-43-4-33-6-56-6-27 0-45 19.5T39 1303q0 72 86 71 2 0 31-2 307-20 286-20h21l493 14q14 0 107 6 33 2 59 2 106 0 107-94 0-16-8-104-6-66-7-121 0-72 5-101 8-59 8-88 0-78-74-78t-74 109v107q0 172-71 202-53 23-275 23-145 0-172-6-88-23-88-123V963q-2-29-2-41v-27q0-82 37-94 14-4 49-4h84q129 0 129 88 0 25-6 63.5t-6 69.5q0 82 73 82 74 0 74-88 0-16-14-127-12-94-12-166 0-41 8-146 2-16 10-71 6-45 6-72 0-74-74-74-72 0-71 86 0 23 5 66t5 65q0 88-117 89h-92q-59 0-72.5-20.5T473 553V426q0-33 2-88 2-68 2-90 2-82 33-103 23-14 106-14h279q121 0 166 36t45 134q0 31-3 91.5t-3 90.5q0 92 74 92 78 0 77-94 0-37-4-112.5t-4-112.5q0-29 3-85t3-85q0-96-94-96-23 0-72 4-25 2-90 2 14 0-160 4T532 4Q339 4 156-8q-8 0-19-2h-12q-86 0-86 73zm377 1618q0 35 22.5 58.5T494 1763q31 0 63-20l279-174q51-33 51-62 0-47-51-47-14 0-29 6l-313 136q-78 33-78 79z"/><glyph unicode="É" horiz-adv-x="1378" d="M39 63q0 66 63 66 10 0 56-4 23-6 43-6 104 0 104 153v822q0 152-104 151-29 0-43-4-33-6-56-6-27 0-45 19.5T39 1303q0 72 86 71 2 0 31-2 307-20 286-20h21l493 14q14 0 107 6 33 2 59 2 106 0 107-94 0-16-8-104-6-66-7-121 0-72 5-101 8-59 8-88 0-78-74-78t-74 109v107q0 172-71 202-53 23-275 23-145 0-172-6-88-23-88-123V963q-2-29-2-41v-27q0-82 37-94 14-4 49-4h84q129 0 129 88 0 25-6 63.5t-6 69.5q0 82 73 82 74 0 74-88 0-16-14-127-12-94-12-166 0-41 8-146 2-16 10-71 6-45 6-72 0-74-74-74-72 0-71 86 0 23 5 66t5 65q0 88-117 89h-92q-59 0-72.5-20.5T473 553V426q0-33 2-88 2-68 2-90 2-82 33-103 23-14 106-14h279q121 0 166 36t45 134q0 31-3 91.5t-3 90.5q0 92 74 92 78 0 77-94 0-37-4-112.5t-4-112.5q0-29 3-85t3-85q0-96-94-96-23 0-72 4-25 2-90 2 14 0-160 4T532 4Q339 4 156-8q-8 0-19-2h-12q-86 0-86 73zm444 1444q0 31 49 62l279 174q33 20 66 20 75 0 75-82 0-47-75-79l-314-136q-14-6-28-6-51 0-52 47z"/><glyph unicode="Ê" horiz-adv-x="1378" d="M39 63q0 66 63 66 10 0 56-4 23-6 43-6 104 0 104 153v822q0 152-104 151-29 0-43-4-33-6-56-6-27 0-45 19.5T39 1303q0 72 86 71 2 0 31-2 307-20 286-20h21l493 14q14 0 107 6 33 2 59 2 106 0 107-94 0-16-8-104-6-66-7-121 0-72 5-101 8-59 8-88 0-78-74-78t-74 109v107q0 172-71 202-53 23-275 23-145 0-172-6-88-23-88-123V963q-2-29-2-41v-27q0-82 37-94 14-4 49-4h84q129 0 129 88 0 25-6 63.5t-6 69.5q0 82 73 82 74 0 74-88 0-16-14-127-12-94-12-166 0-41 8-146 2-16 10-71 6-45 6-72 0-74-74-74-72 0-71 86 0 23 5 66t5 65q0 88-117 89h-92q-59 0-72.5-20.5T473 553V426q0-33 2-88 2-68 2-90 2-82 33-103 23-14 106-14h279q121 0 166 36t45 134q0 31-3 91.5t-3 90.5q0 92 74 92 78 0 77-94 0-37-4-112.5t-4-112.5q0-29 3-85t3-85q0-96-94-96-23 0-72 4-25 2-90 2 14 0-160 4T532 4Q339 4 156-8q-8 0-19-2h-12q-86 0-86 73zm258 1444q0 23 47 56l279 194q23 16 41 17 20 0 43-17l278-194q45-31 45-56 0-39-43-39-14 0-39 9-8 4-39 18l-245 115-246-115-37-18q-25-8-37-9h-2q-45 0-45 39z"/><glyph unicode="Ë" horiz-adv-x="1378" d="M39 63q0 66 63 66 10 0 56-4 23-6 43-6 104 0 104 153v822q0 152-104 151-29 0-43-4-33-6-56-6-27 0-45 19.5T39 1303q0 72 86 71 2 0 31-2 307-20 286-20h21l493 14q14 0 107 6 33 2 59 2 106 0 107-94 0-16-8-104-6-66-7-121 0-72 5-101 8-59 8-88 0-78-74-78t-74 109v107q0 172-71 202-53 23-275 23-145 0-172-6-88-23-88-123V963q-2-29-2-41v-27q0-82 37-94 14-4 49-4h84q129 0 129 88 0 25-6 63.5t-6 69.5q0 82 73 82 74 0 74-88 0-16-14-127-12-94-12-166 0-41 8-146 2-16 10-71 6-45 6-72 0-74-74-74-72 0-71 86 0 23 5 66t5 65q0 88-117 89h-92q-59 0-72.5-20.5T473 553V426q0-33 2-88 2-68 2-90 2-82 33-103 23-14 106-14h279q121 0 166 36t45 134q0 31-3 91.5t-3 90.5q0 92 74 92 78 0 77-94 0-37-4-112.5t-4-112.5q0-29 3-85t3-85q0-96-94-96-23 0-72 4-25 2-90 2 14 0-160 4T532 4Q339 4 156-8q-8 0-19-2h-12q-86 0-86 73zm315 1569q0 55 39 93t94 38 94.5-37.5T621 1632q0-55-39.5-93t-94.5-38-94 38-39 93zm371 0q0 53 39 92t92 39q55 0 94-37.5t39-93.5q0-55-39-93t-94-38q-53 0-92 38t-39 93z"/><glyph unicode="Ì" horiz-adv-x="782" d="M39 63q0 66 63 66 10 0 56-4 23-6 43-6 104 0 104 153v822q0 152-104 151-29 0-43-4-33-6-56-6-27 0-45 19.5T39 1303q0 72 90 71 12 0 29-2l108-14q61-8 127-8 63 0 139 10l93 12q16 2 28 2 90 0 90-71 0-29-18-48.5t-45-19.5q-20 0-55 6-14 4-43 4-104 0-105-151V272q0-154 105-153 16 0 43 4 39 6 55 6 63 0 63-66 0-74-90-73h-14q-8 2-14 2L518 8q-53 8-112 8-86 0-154-10L158-8q-4 0-15-2h-16q-88 0-88 73zm106 1618q0 82 78 82 31 0 64-20l278-174q51-33 51-62 0-47-51-47-16 0-30 6l-312 136q-78 33-78 79z"/><glyph unicode="Í" horiz-adv-x="782" d="M39 63q0 66 63 66 10 0 56-4 23-6 43-6 104 0 104 153v822q0 152-104 151-29 0-43-4-33-6-56-6-27 0-45 19.5T39 1303q0 72 90 71 12 0 29-2l108-14q61-8 127-8 63 0 139 10l93 12q16 2 28 2 90 0 90-71 0-29-18-48.5t-45-19.5q-20 0-55 6-14 4-43 4-104 0-105-151V272q0-154 105-153 16 0 43 4 39 6 55 6 63 0 63-66 0-74-90-73h-14q-8 2-14 2L518 8q-53 8-112 8-86 0-154-10L158-8q-4 0-15-2h-16q-88 0-88 73zm119 1444q0 31 49 62l280 174q33 20 64 20 78 0 78-82 0-47-78-79l-313-136q-14-6-29-6-51 0-51 47z"/><glyph unicode="Î" horiz-adv-x="782" d="M16 1507q0 23 47 56l279 194q23 16 41 17 20 0 43-17l279-194q45-31 45-56 0-39-43-39-14 0-39 9-8 4-39 18l-246 115-246-115-37-18q-25-8-37-9h-2q-45 0-45 39zM39 63q0 66 63 66 10 0 56-4 23-6 43-6 104 0 104 153v822q0 152-104 151-29 0-43-4-33-6-56-6-27 0-45 19.5T39 1303q0 72 90 71 12 0 29-2l108-14q61-8 127-8 63 0 139 10l93 12q16 2 28 2 90 0 90-71 0-29-18-48.5t-45-19.5q-20 0-55 6-14 4-43 4-104 0-105-151V272q0-154 105-153 16 0 43 4 39 6 55 6 63 0 63-66 0-74-90-73h-14q-8 2-14 2L518 8q-53 8-112 8-86 0-154-10L158-8q-4 0-15-2h-16q-88 0-88 73z"/><glyph unicode="Ï" horiz-adv-x="782" d="M39 63q0 66 63 66 10 0 56-4 23-6 43-6 104 0 104 153v822q0 152-104 151-29 0-43-4-33-6-56-6-27 0-45 19.5T39 1303q0 72 90 71 12 0 29-2l108-14q61-8 127-8 63 0 139 10l93 12q16 2 28 2 90 0 90-71 0-29-18-48.5t-45-19.5q-20 0-55 6-14 4-43 4-104 0-105-151V272q0-154 105-153 16 0 43 4 39 6 55 6 63 0 63-66 0-74-90-73h-14q-8 2-14 2L518 8q-53 8-112 8-86 0-154-10L158-8q-4 0-15-2h-16q-88 0-88 73zm35 1569q0 55 39 93t94 38 94-37.5 39-93.5q0-55-39-93t-94-38-94 38-39 93zm370 0q0 53 39 92t92 39q55 0 94.5-37.5T709 1632q0-53-39.5-92t-94.5-39q-53 0-92 39t-39 92z"/><glyph unicode="Ñ" horiz-adv-x="1564" d="M37 1303q0 72 88 71 12 0 33-2 102-10 157-10 31 0 92.5 6t92.5 6q63 0 84-43l22-49 551-1145v826q0 160-2 176-18 106-102 106-16 0-49-5t-50-5q-27 0-46 19.5t-19 45.5q0 74 92 74 18 0 27-2l92-12q61-8 114-8t142 12q31 4 71 10 4 0 15 2h14q88 0 88-71 0-70-82-70-14 0-22 2h-21q-61 0-79.5-26.5T1317 1094l-4-117-4-209V221q0-141-32-198.5T1167-35q-100 0-170 144L461 1225V272q0-154 104-153 16 0 49 5t50 5q66 0 65-68 0-72-92-71h-12q-10 2-15 2L526 4q-70 10-131 10-53 0-137-10L158-8q-4 0-15-2h-16q-88 0-88 71 0 63 65 64 10 0 56-4 23-6 43-6 104 0 104 153v144l2 180v176l-2 324q0 154-106 153-14 0-41-4-39-6-58-6-66 0-65 68zm463 235q0 72 64.5 128t148.5 56q59 0 149-30l78-27q41-14 70-14 53 0 88 35l30 30q10 10 23 10 33 0 33-32 0-70-65.5-123T967 1518q-51 0-131 26l-7 2q-115 39-157 39-66 0-94-39l-19-24q-14-18-29-19-31 0-30 35z"/><glyph unicode="Ò" horiz-adv-x="1341" d="M78 684q0 340 159.5 533.5T678 1411q268 0 427-188.5T1264 713q0-348-161-553T668-45q-272 0-431 196.5T78 684zm180 2q0-279 108.5-431.5T670 102q190 0 301.5 159T1083 692q0 274-106 423t-305 149q-197 0-305.5-151.5T258 686zm168 995q0 82 76 82 33 0 65-20l279-174q49-33 49-62 0-47-51-47-14 0-29 6l-313 136q-76 33-76 79z"/><glyph unicode="Ó" horiz-adv-x="1341" d="M78 684q0 340 159.5 533.5T678 1411q268 0 427-188.5T1264 713q0-348-161-553T668-45q-272 0-431 196.5T78 684zm180 2q0-279 108.5-431.5T670 102q190 0 301.5 159T1083 692q0 274-106 423t-305 149q-197 0-305.5-151.5T258 686zm178 821q0 29 51 62l279 174q33 20 63 20 78 0 78-82 0-47-76-79l-313-136q-14-6-31-6-51 0-51 47z"/><glyph unicode="Ô" horiz-adv-x="1341" d="M78 684q0 340 159.5 533.5T678 1411q268 0 427-188.5T1264 713q0-348-161-553T668-45q-272 0-431 196.5T78 684zm180 2q0-279 108.5-431.5T670 102q190 0 301.5 159T1083 692q0 274-106 423t-305 149q-197 0-305.5-151.5T258 686zm39 821q0 23 47 56l277 194q23 16 43 17 20 0 43-17l276-194q47-33 47-56 0-39-43-39-20 0-39 9-8 4-39 18l-245 115-285-133q-25-8-35-9h-4q-43 0-43 39z"/><glyph unicode="Õ" horiz-adv-x="1341" d="M78 684q0 340 159.5 533.5T678 1411q268 0 427-188.5T1264 713q0-348-161-553T668-45q-272 0-431 196.5T78 684zm180 2q0-279 108.5-431.5T670 102q190 0 301.5 159T1083 692q0 274-106 423t-305 149q-197 0-305.5-151.5T258 686zm72 852q0 74 64.5 129t148.5 55q55 0 147-30l80-27q43-14 68-14 53 0 88 35l30 30q10 10 25 10 31 0 31-32 0-70-65.5-123T797 1518q-55 0-140 28-115 39-155 39-68 0-96-39l-19-24q-14-18-29-19-29 0-28 35z"/><glyph unicode="Ö" horiz-adv-x="1341" d="M78 684q0 340 159.5 533.5T678 1411q268 0 427-188.5T1264 713q0-348-161-553T668-45q-272 0-431 196.5T78 684zm180 2q0-279 108.5-431.5T670 102q190 0 301.5 159T1083 692q0 274-106 423t-305 149q-197 0-305.5-151.5T258 686zm96 946q0 55 39 93t94 38 93-37.5 38-93.5q0-55-38-93t-93-38-94 38-39 93zm371 0q0 53 39 92t92 39q55 0 93-38.5t38-92.5q0-53-39-92t-92-39-92 39-39 92z"/><glyph unicode="Ø" horiz-adv-x="1341" d="M78 657q0 348 161 551t437 203q137 0 266-59l72 131q14 27 39 26h90q18 0 18-20 0-2-2-6l-106-205q86-102 123-172 88-170 88-418 0-336-159-534.5T678-45q-150 0-287 61l-65-127q-14-27-39-26h-97q-16 0-16 16 0 6 2 10L287 94Q78 301 78 657zm180 9q0-266 98-430l525 989q-82 47-201 47-201 0-311.5-159T258 666zm197-527q92-47 198-47 207 0 318.5 149.5T1083 668q0 266-77 409l-29 45z"/><glyph unicode="Ù" horiz-adv-x="1454" d="M20 1305q0 70 78 69 33 0 70-6 100-16 186-16 88 0 203 18 25 4 53 4 84 0 84-69 0-70-71-70-16 0-49 5t-50 5q-66 0-88-69-10-31-12-125l-4-131-8-166V438q0-143 31.5-208.5T563 127q82-35 168-35 113 0 193 43t103.5 116 25.5 185l4 527q0 156-4 176-18 104-105 104-14 0-41-4-39-6-55-6-27 0-46.5 20.5T786 1300q0 74 91 74 14 0 28-2l121-16q45-6 102-6 55 0 93 6l88 14q37 6 49 6 86 0 86-69 0-70-84-70h-23q-6 2-20 2-61 0-75.5-61.5T1227 862V504q0-133-8-193-16-102-70-178Q1026-45 733-45q-360 0-465 235-33 72-32 224 0 74 6 218t6 218v108q0 150-2 168-14 113-80 113h-14q-10-2-18.5-3t-27.5-1q-86 0-86 70zm465 376q0 35 22.5 58.5T563 1763q31 0 64-20l278-174q51-33 51-62 0-47-51-47-14 0-28 6l-314 136q-78 33-78 79z"/><glyph unicode="Ú" horiz-adv-x="1454" d="M20 1305q0 70 78 69 33 0 70-6 100-16 186-16 88 0 203 18 25 4 53 4 84 0 84-69 0-70-71-70-16 0-49 5t-50 5q-66 0-88-69-10-31-12-125l-4-131-8-166V438q0-143 31.5-208.5T563 127q82-35 168-35 113 0 193 43t103.5 116 25.5 185l4 527q0 156-4 176-18 104-105 104-14 0-41-4-39-6-55-6-27 0-46.5 20.5T786 1300q0 74 91 74 14 0 28-2l121-16q45-6 102-6 55 0 93 6l88 14q37 6 49 6 86 0 86-69 0-70-84-70h-23q-6 2-20 2-61 0-75.5-61.5T1227 862V504q0-133-8-193-16-102-70-178Q1026-45 733-45q-360 0-465 235-33 72-32 224 0 74 6 218t6 218v108q0 150-2 168-14 113-80 113h-14q-10-2-18.5-3t-27.5-1q-86 0-86 70zm504 202q0 29 51 62l279 174q33 20 64 20 77 0 77-82 0-47-75-79l-314-136q-14-6-31-6-51 0-51 47z"/><glyph unicode="Û" horiz-adv-x="1454" d="M20 1305q0 70 78 69 33 0 70-6 100-16 186-16 88 0 203 18 25 4 53 4 84 0 84-69 0-70-71-70-16 0-49 5t-50 5q-66 0-88-69-10-31-12-125l-4-131-8-166V438q0-143 31.5-208.5T563 127q82-35 168-35 113 0 193 43t103.5 116 25.5 185l4 527q0 156-4 176-18 104-105 104-14 0-41-4-39-6-55-6-27 0-46.5 20.5T786 1300q0 74 91 74 14 0 28-2l121-16q45-6 102-6 55 0 93 6l88 14q37 6 49 6 86 0 86-69 0-70-84-70h-23q-6 2-20 2-61 0-75.5-61.5T1227 862V504q0-133-8-193-16-102-70-178Q1026-45 733-45q-360 0-465 235-33 72-32 224 0 74 6 218t6 218v108q0 150-2 168-14 113-80 113h-14q-10-2-18.5-3t-27.5-1q-86 0-86 70zm336 202q0 23 47 56l279 194q23 16 43 17 20 0 43-17l276-194q47-33 48-56 0-39-45-39-14 0-39 9-8 4-37 18l-246 115-285-133q-25-8-37-9h-2q-45 0-45 39z"/><glyph unicode="Ü" horiz-adv-x="1454" d="M20 1305q0 70 78 69 33 0 70-6 100-16 186-16 88 0 203 18 25 4 53 4 84 0 84-69 0-70-71-70-16 0-49 5t-50 5q-66 0-88-69-10-31-12-125l-4-131-8-166V438q0-143 31.5-208.5T563 127q82-35 168-35 113 0 193 43t103.5 116 25.5 185l4 527q0 156-4 176-18 104-105 104-14 0-41-4-39-6-55-6-27 0-46.5 20.5T786 1300q0 74 91 74 14 0 28-2l121-16q45-6 102-6 55 0 93 6l88 14q37 6 49 6 86 0 86-69 0-70-84-70h-23q-6 2-20 2-61 0-75.5-61.5T1227 862V504q0-133-8-193-16-102-70-178Q1026-45 733-45q-360 0-465 235-33 72-32 224 0 74 6 218t6 218v108q0 150-2 168-14 113-80 113h-14q-10-2-18.5-3t-27.5-1q-86 0-86 70zm404 327q0 55 39 93t94 38q53 0 92-37.5t39-93.5q0-55-39-93t-92-38q-55 0-94 38t-39 93zm369 0q0 53 38.5 92t94.5 39q53 0 92-37.5t39-93.5q0-55-39-93t-92-38q-55 0-94 39t-39 92z"/><glyph unicode="ß" d="M41 61q0 66 76 66 27 0 39-2 31-8 51-8 49 0 59 84 2 16 2 118v125q-2 45-2 48v133q0 137-2 151-8 119-55 119-18 0-37-4h-10q-8-2-12-2-78 0-78 67 0 66 65 66 8 0 41-4 27-8 53-8 45 0 66 90 41 178 174 264 92 59 236 59 150 0 251-83t101-203q0-117-107-199l-82-64q-47-37-47-59 0-37 78-82 135-78 184.5-114.5T1176 524q59-82 59-190 0-154-104.5-261.5T879-35q-137 0-228 92-2-80-65-80-70 0-70 91 0 31 4 55 10 63 10 108 0 25-5 74t-5 74q0 86 72 86 63 0 63-88v-33q-2-10-2-35 0-96 53.5-152.5T852 100t154.5 64.5T1069 324q0 78-43 129T842 594l-119 76q-90 57-90 135 0 63 98 142t130 119 32 85q0 59-53.5 98T705 1288q-162 0-232-131-61-115-61-338V684l12-565Q426-8 332-8q-16 0-46 6t-46 6q-18 0-56.5-6T129-8Q41-8 41 61z"/><glyph unicode="à" horiz-adv-x="1155" d="M61 266q0 170 146 250 55 31 95 40t161 24q172 18 224 51t52 121q0 84-58 132t-163 48q-92 0-172-51-31-20-31-43 0-8 19-21 29-20 28-69 0-41-29.5-68T258 653q-53 0-89 37t-36 90q0 115 113.5 197t275.5 82q373 0 373-359V287q0-98 4-117 12-72 70-72 72 0 71 131v101q0 66 64 65 68 0 67-98v-10l-2-117q-3-197-208-197-168 0-207 146Q650-35 426-35q-166 0-265.5 82T61 266zm166 2q0-78 56.5-123T436 100q137 0 216 75t81 206l2 145q-45-41-95-57t-179-29q-233-23-234-172zm39 1090q0 74 72 74 27 0 59-21l258-162q43-27 43-53 0-49-43-49-2 0-26 6l-291 127q-72 31-72 78z"/><glyph unicode="á" horiz-adv-x="1155" d="M61 266q0 170 146 250 55 31 95 40t161 24q172 18 224 51t52 121q0 84-58 132t-163 48q-92 0-172-51-31-20-31-43 0-8 19-21 29-20 28-69 0-41-29.5-68T258 653q-53 0-89 37t-36 90q0 115 113.5 197t275.5 82q373 0 373-359V287q0-98 4-117 12-72 70-72 72 0 71 131v101q0 66 64 65 68 0 67-98v-10l-2-117q-3-197-208-197-168 0-207 146Q650-35 426-35q-166 0-265.5 82T61 266zm166 2q0-78 56.5-123T436 100q137 0 216 75t81 206l2 145q-45-41-95-57t-179-29q-233-23-234-172zm111 928q0 27 43 53l258 162q33 20 61 21 72 0 72-70 0-51-72-82l-292-127q-25-6-27-6-43 0-43 49z"/><glyph unicode="â" horiz-adv-x="1155" d="M61 266q0 170 146 250 55 31 95 40t161 24q172 18 224 51t52 121q0 84-58 132t-163 48q-92 0-172-51-31-20-31-43 0-8 19-21 29-20 28-69 0-41-29.5-68T258 653q-53 0-89 37t-36 90q0 115 113.5 197t275.5 82q373 0 373-359V287q0-98 4-117 12-72 70-72 72 0 71 131v101q0 66 64 65 68 0 67-98v-10l-2-117q-3-197-208-197-168 0-207 146Q650-35 426-35q-166 0-265.5 82T61 266zm132 926q0 18 45 51l256 182q25 14 41 15 18 0 38-15l258-182q14-10 33-22 10-8 13-25v-4q0-35-41-35-21 0-74 25l-227 106-230-106q-53-25-72-25-41 0-40 35zm34-924q0-78 56.5-123T436 100q137 0 216 75t81 206l2 145q-45-41-95-57t-179-29q-233-23-234-172z"/><glyph unicode="ã" horiz-adv-x="1155" d="M61 266q0 170 146 250 55 31 95 40t161 24q172 18 224 51t52 121q0 84-58 132t-163 48q-92 0-172-51-31-20-31-43 0-8 19-21 29-20 28-69 0-41-29.5-68T258 653q-53 0-89 37t-36 90q0 115 113.5 197t275.5 82q373 0 373-359V287q0-98 4-117 12-72 70-72 72 0 71 131v101q0 66 64 65 68 0 67-98v-10l-2-117q-3-197-208-197-168 0-207 146Q650-35 426-35q-166 0-265.5 82T61 266zm156 951q0 70 59.5 121t137.5 51q53 0 139-29l74-25q37-12 63-12 47 0 82 33l29 26q10 10 22 11 29 0 29-31 0-63-61.5-113.5T651 1198q-47 0-129 27-115 37-147 37-59 0-88-37l-17-21q-14-18-26-18-27 0-27 31zm10-949q0-78 56.5-123T436 100q137 0 216 75t81 206l2 145q-45-41-95-57t-179-29q-233-23-234-172z"/><glyph unicode="ä" horiz-adv-x="1155" d="M61 266q0 170 146 250 55 31 95 40t161 24q172 18 224 51t52 121q0 84-58 132t-163 48q-92 0-172-51-31-20-31-43 0-8 19-21 29-20 28-69 0-41-29.5-68T258 653q-53 0-89 37t-36 90q0 115 113.5 197t275.5 82q373 0 373-359V287q0-98 4-117 12-72 70-72 72 0 71 131v101q0 66 64 65 68 0 67-98v-10l-2-117q-3-197-208-197-168 0-207 146Q650-35 426-35q-166 0-265.5 82T61 266zm166 2q0-78 56.5-123T436 100q137 0 216 75t81 206l2 145q-45-41-95-57t-179-29q-233-23-234-172zm0 1016q0 47 33 81t80 34 81-34 34-81-33-81-80-34-81 34-34 81zm365 0q0 47 32.5 81t80.5 34q47 0 80.5-34t33.5-81-33.5-81-80.5-34q-45 0-79 34t-34 81z"/><glyph unicode="å" horiz-adv-x="1155" d="M61 266q0 170 146 250 55 31 95 40t161 24q172 18 224 51t52 121q0 84-58 132t-163 48q-92 0-172-51-31-20-31-43 0-8 19-21 29-20 28-69 0-41-29.5-68T258 653q-53 0-89 37t-36 90q0 115 113.5 197t275.5 82q373 0 373-359V287q0-98 4-117 12-72 70-72 72 0 71 131v101q0 66 64 65 68 0 67-98v-10l-2-117q-3-197-208-197-168 0-207 146Q650-35 426-35q-166 0-265.5 82T61 266zm166 2q0-78 56.5-123T436 100q137 0 216 75t81 206l2 145q-45-41-95-57t-179-29q-233-23-234-172zm107 1045q0 78 56 133t134 55 133.5-55 55.5-133-55.5-132.5T524 1126t-134 55.5-56 131.5zm94 0q0-39 28.5-66.5T524 1219t65.5 27.5T616 1313t-26.5 66.5T524 1407q-41 0-68.5-27.5T428 1313z"/><glyph unicode="æ" horiz-adv-x="1714" d="M61 279q0 84 46.5 161.5T229 557q121 63 349 64h124q33 0 41.5 10t8.5 49q0 117-67 184.5T504 932q-92 0-158-43-31-20-31-39 0-4 9-16 27-39 26-70 0-45-32.5-75T238 659q-51 0-85 34t-34 87q0 113 116.5 196t272.5 83q170 0 270-88 45-39 76-115 143 203 358 203 188 0 310.5-133T1645 586q0-102-54-103H946q-45 0-45-39 0-147 86-245.5t215-98.5q92 0 163 48.5t99 127.5l17 48q16 45 65 45 33 0 55.5-21.5T1624 295q0-125-135-227.5T1190-35q-240 0-363 203Q714-35 453-35q-178 0-285 85T61 279zm166 4q0-82 64.5-132.5T459 100q150 0 227 95 59 72 59 215v28q0 31-7 38t-38 7H537q-309 0-310-200zm691 366q0-29 47-28h465q47 0 47 26 0 111-81 194t-190 83q-113 0-200.5-83T918 649z"/><glyph unicode="ç" horiz-adv-x="1044" d="M80 500q0 254 132 406.5T563 1059q164 0 272.5-89T944 743q0-76-42-125t-107-49q-51 0-85 31t-34 76q0 82 102 94-10 72-68.5 113T559 924q-141 0-227-113t-86-299q0-193 81-302.5T551 100q90 0 156.5 51.5T799 293q20 72 24 82 23 41 66 41 35 0 57.5-22.5T969 336q0-49-33-121T858 94Q764-10 575-35l-26-63q37 6 53 6 74 0 126-45t52-109q0-72-65.5-121T553-416q-84 0-149.5 37T338-295q0 18 14.5 33.5T383-246q23 0 37-16l22-25q35-39 105-39 106 0 106 78 0 72-92 72-23 0-47-8l-49-17q-6-2-23-2-27 0-26 23 0 8 10 33l49 118Q366-11 303 31 80 178 80 500z"/><glyph unicode="è" horiz-adv-x="1081" d="M80 498q0 250 135 405.5T567 1059q193 0 318-129t125-328q0-78-10.5-95.5T940 489H289q-27 0-35-7t-8-23q0-154 92-256.5T567 100q90 0 165 49.5T829 274l19 60q14 49 67 49 76 0 76-78 0-133-135-236.5T549-35q-215 0-342 144.5T80 498zm186 157q0-29 45-28h490q43 0 43 28 0 109-82 189t-193 80q-115 0-209-83.5T266 655zm58 703q0 31 21 52.5t50 21.5q27 0 60-21l260-162q41-25 41-53 0-49-43-49-2 0-27 6l-291 127q-72 31-71 78z"/><glyph unicode="é" horiz-adv-x="1081" d="M80 498q0 250 135 405.5T567 1059q193 0 318-129t125-328q0-78-10.5-95.5T940 489H289q-27 0-35-7t-8-23q0-154 92-256.5T567 100q90 0 165 49.5T829 274l19 60q14 49 67 49 76 0 76-78 0-133-135-236.5T549-35q-215 0-342 144.5T80 498zm186 157q0-29 45-28h490q43 0 43 28 0 109-82 189t-193 80q-115 0-209-83.5T266 655zm76 541q0 27 43 53l258 162q33 20 62 21 71 0 71-70 0-49-74-82l-290-127q-25-6-27-6-43 0-43 49z"/><glyph unicode="ê" horiz-adv-x="1081" d="M80 498q0 250 135 405.5T567 1059q193 0 318-129t125-328q0-78-10.5-95.5T940 489H289q-27 0-35-7t-8-23q0-154 92-256.5T567 100q90 0 165 49.5T829 274l19 60q14 49 67 49 76 0 76-78 0-133-135-236.5T549-35q-215 0-342 144.5T80 498zm149 694q0 18 45 51l258 182q20 14 39 15 16 0 41-15l258-182q14-10 31-22 10-8 12-25v-4q0-35-41-35-18 0-71 25l-230 106-227-106q-53-25-72-25-43 0-43 35zm37-537q0-29 45-28h490q43 0 43 28 0 109-82 189t-193 80q-115 0-209-83.5T266 655z"/><glyph unicode="ë" horiz-adv-x="1081" d="M80 498q0 250 135 405.5T567 1059q193 0 318-129t125-328q0-78-10.5-95.5T940 489H289q-27 0-35-7t-8-23q0-154 92-256.5T567 100q90 0 165 49.5T829 274l19 60q14 49 67 49 76 0 76-78 0-133-135-236.5T549-35q-215 0-342 144.5T80 498zm186 157q0-29 45-28h490q43 0 43 28 0 109-82 189t-193 80q-115 0-209-83.5T266 655zm10 629q0 47 33 81t80 34 81-34 34-81-34-81-81-34q-45 0-79 34t-34 81zm365 0q0 47 33 81t80 34 80.5-34 33.5-81-33.5-81-80.5-34q-45 0-79 34t-34 81z"/><glyph unicode="ì" horiz-adv-x="634" d="M33 61q0 68 69 68 16 0 48-6t49-6q49 0 59 131v524q-10 129-61 129-16 0-46-7t-45-7q-74 0-73 65 0 70 90 70 39 0 55-2 66-8 84-8 16 0 50 5t50 5q59 0 60-80 0-8-2-24.5t-2-24.5q-2-16-4-127-2-84-2-172V328q0-102 2-121 10-92 55-92 10 0 51 10 10 4 31 4 78 0 78-68 0-29-25.5-49T539-8q-33 0-99.5 9T340 10q-53 0-119-8Q141-8 115-8 33-8 33 61zm24 1297q0 31 21.5 52.5T129 1432q27 0 59-21l261-162q43-27 43-53 0-49-46-49-2 0-26 6l-291 127q-72 31-72 78z"/><glyph unicode="í" horiz-adv-x="634" d="M33 61q0 68 69 68 16 0 48-6t49-6q49 0 59 131v524q-10 129-61 129-16 0-46-7t-45-7q-74 0-73 65 0 70 90 70 39 0 55-2 66-8 84-8 16 0 50 5t50 5q59 0 60-80 0-8-2-24.5t-2-24.5q-2-16-4-127-2-84-2-172V328q0-102 2-121 10-92 55-92 10 0 51 10 10 4 31 4 78 0 78-68 0-29-25.5-49T539-8q-33 0-99.5 9T340 10q-53 0-119-8Q141-8 115-8 33-8 33 61zm45 1135q0 27 43 53l258 162q33 20 61 21 72 0 72-70 0-49-74-82l-291-127q-25-6-26-6-43 0-43 49z"/><glyph unicode="î" horiz-adv-x="632" d="M0 1192q0 20 37 51l225 182q18 14 35 15 14 0 35-15l223-182q39-33 39-51 0-35-35-35-18 0-63 25l-199 106-199-106q-45-25-63-25-35 0-35 35zM33 61q0 68 69 68 16 0 48-6t49-6q49 0 59 131v524q-10 129-61 129-16 0-46-7t-45-7q-74 0-73 65 0 70 90 70 39 0 55-2 66-8 84-8 16 0 50 5t50 5q59 0 60-80 0-8-2-24.5t-2-24.5q-2-16-4-127-2-84-2-172V328q0-102 2-121 10-92 55-92 10 0 51 10 10 4 31 4 78 0 78-68 0-29-25.5-49T539-8q-33 0-99.5 9T340 10q-53 0-119-8Q141-8 115-8 33-8 33 61z"/><glyph unicode="ï" horiz-adv-x="634" d="M0 1284q0 47 34 81t81 34 80.5-34 33.5-81-33.5-81-80.5-34-81 34-34 81zM33 61q0 68 69 68 16 0 48-6t49-6q49 0 59 131v524q-10 129-61 129-16 0-46-7t-45-7q-74 0-73 65 0 70 90 70 39 0 55-2 66-8 84-8 16 0 50 5t50 5q59 0 60-80 0-33-4-88-4-63-4-88-2-84-2-172V328q0-102 2-121 10-92 55-92 10 0 51 10 10 4 31 4 78 0 78-68 0-29-25.5-49T539-8q-33 0-99.5 9T340 10q-51 0-117-8Q143-8 115-8 33-8 33 61zm332 1223q0 47 33.5 81t80.5 34 81-34 34-81-34-81-81-34-80.5 34-33.5 81z"/><glyph unicode="ñ" d="M33 61q0 66 65 66 10 0 38-6t54-6q61 0 64 118l4 228v248l-4 71q-4 70-17.5 95.5T190 901q-14 0-41.5-5t-42.5-5q-74 0-73 65 0 68 92 68 12 0 20-2l76-8q33 0 58 4 53 4 55 4 59 0 59-61v-58q123 156 328 156 111 0 209-56.5T1063 862q29-70 29-182V291q0-88 2-105 10-70 55-69 18 0 48 5t42 5q27 0 46.5-18.5T1305 63q0-31-25-51t-59-20q-29 0-94.5 8T1004 8q-53 0-89-4Q813-8 807-8q-82 0-82 71 0 63 70 64 16 0 36-4 39-8 50-8 49 0 53 112l4 105 2 125v155q0 109-10 150-18 78-80 121-68 47-154 47-164 0-235-117-49-80-49-272V268q0-90 12-122.5t45-32.5q16 0 45 8t47 8q63 0 64-70 0-68-82-67-16 0-107 12-45 6-100 6-43 0-115-8Q131-8 119-8 33-8 33 61zm327 1156q0 70 60.5 121t138.5 51q49 0 137-29l76-25q37-12 64-12 47 0 82 33l28 26q10 10 23 11 29 0 28-31 0-63-61.5-113.5T797 1198q-47 0-129 27-115 37-148 37-59 0-88-37l-16-21q-14-18-27-18-29 0-29 31z"/><glyph unicode="ò" horiz-adv-x="1118" d="M78 512q0 250 130 398.5T557 1059q223 0 352-145.5T1038 518 905 116.5 551-35q-215 0-344 148.5T78 512zm168 0q0-193 81-302.5T553 100q150 0 234.5 109.5T872 514q0 410-311 410-143 0-225-100.5T246 539v-27zm69 846q0 74 72 74 27 0 59-21l261-162q41-25 41-53 0-49-43-49-2 0-27 6l-291 127q-72 31-72 78z"/><glyph unicode="ó" horiz-adv-x="1118" d="M78 512q0 250 130 398.5T557 1059q223 0 352-145.5T1038 518 905 116.5 551-35q-215 0-344 148.5T78 512zm168 0q0-193 81-302.5T553 100q150 0 234.5 109.5T872 514q0 410-311 410-143 0-225-100.5T246 539v-27zm102 684q0 27 41 53l258 162q33 20 64 21 69 0 69-70 0-51-71-82l-291-127q-31-6-29-6-41 0-41 49z"/><glyph unicode="ô" horiz-adv-x="1118" d="M78 512q0 250 130 398.5T557 1059q223 0 352-145.5T1038 518 905 116.5 551-35q-215 0-344 148.5T78 512zm139 680q0 18 45 51l258 182q20 14 39 15 18 0 39-15l258-182q14-10 33-22 10-8 12-25v-4q0-35-41-35-21 0-74 25l-227 106-229-106q-53-25-72-25-41 0-41 35zm29-680q0-193 81-302.5T553 100q150 0 234.5 109.5T872 514q0 410-311 410-143 0-225-100.5T246 539v-27z"/><glyph unicode="õ" horiz-adv-x="1118" d="M78 512q0 250 130 398.5T557 1059q223 0 352-145.5T1038 518 905 116.5 551-35q-215 0-344 148.5T78 512zm164 705q0 70 59 121t137 51q53 0 140-29l73-25q37-12 64-12 53 0 82 33l28 26q10 10 23 11 29 0 29-31 0-66-60.5-115T676 1198q-47 0-129 27-115 37-148 37-59 0-88-37l-16-21q-14-18-27-18-27 0-26 31zm4-705q0-193 81-302.5T553 100q150 0 234.5 109.5T872 514q0 410-311 410-143 0-225-100.5T246 539v-27z"/><glyph unicode="ö" horiz-adv-x="1118" d="M78 512q0 250 130 398.5T557 1059q223 0 352-145.5T1038 518 905 116.5 551-35q-215 0-344 148.5T78 512zm168 0q0-193 81-302.5T553 100q150 0 234.5 109.5T872 514q0 410-311 410-143 0-225-100.5T246 539v-27zm16 772q0 47 34 81t81 34 81-34 34-81-34-81-81-34-81 34-34 81zm365 0q0 47 33.5 81t80.5 34 81-34 34-81-34-81-81-34-80.5 34-33.5 81z"/><glyph unicode="÷" horiz-adv-x="1024" d="M68 612v140h888V612H68zm342-303q0 41 30.5 72t71.5 31 70.5-31 29.5-72-29.5-70.5T512 209t-71.5 29.5T410 309zm0 746q0 43 29.5 72.5T512 1157q41 0 70.5-30.5T612 1055t-29.5-72-70.5-31-71.5 31-30.5 72z"/><glyph unicode="ø" horiz-adv-x="1118" d="M78 475q0 258 138 421t357 163q119 0 215-55l64 102q18 31 41 31h76q18 0 18-17 0-8-4-14L881 942q158-152 157-410 0-256-132-411.5T553-35q-123 0-236 58l-77-125q-18-31-35-31h-84q-14 0-15 16 0 10 5 15L225 88Q78 256 78 475zm166 6q-1-159 73-274l396 690q-72 31-131 31-158 0-248-120t-90-327zm153-348q74-37 152-37 154 0 243 120t89 327q0 178-82 284z"/><glyph unicode="ù" horiz-adv-x="1267" d="M0 956q0 66 88 66 20 0 60-4t61-4q18 0 63 6 31 4 35 4 63 0 64-78v-43l-2-133-7-152V485q0-178 29-256 47-129 225-129 88 0 156 40t94 106q33 80 33 303v246q-10 98-53 98-23 0-37-4h-25q-72 0-71 63 0 72 80 72 18 0 56-4t56-4q16 0 49 3t50 3q61 0 61-66 0-29-4-45-10-78-10-229V367q0-125 2-140 10-109 57-108 14 0 41 5t41 5q70 0 70-68 0-70-86-69-18 0-54 4-51 6-63 6-6 0-43-4-25-6-43-6-58 0-58 59v64Q806-35 594-35q-242 0-336 150-41 66-45 153-2 43-2 181v169q0 281-59 281-12 0-39-5t-41-5q-72 0-72 67zm373 402q0 31 21 52.5t52 21.5q27 0 60-21l258-162q43-27 43-53 0-49-45-49-2 0-27 6l-291 127q-72 31-71 78z"/><glyph unicode="ú" horiz-adv-x="1267" d="M0 956q0 66 88 66 20 0 60-4t61-4q18 0 63 6 31 4 35 4 63 0 64-78v-43l-2-133-7-152V485q0-178 29-256 47-129 225-129 88 0 156 40t94 106q33 80 33 303v246q-10 98-53 98-23 0-37-4h-25q-72 0-71 63 0 72 80 72 18 0 56-4t56-4q16 0 49 3t50 3q61 0 61-66 0-29-4-45-10-78-10-229V367q0-125 2-140 10-109 57-108 14 0 41 5t41 5q70 0 70-68 0-70-86-69-18 0-54 4-51 6-63 6-6 0-43-4-25-6-43-6-58 0-58 59v64Q806-35 594-35q-242 0-336 150-41 66-45 153-2 43-2 181v169q0 281-59 281-12 0-39-5t-41-5q-72 0-72 67zm449 240q0 27 43 53l258 162q33 20 61 21 72 0 72-70 0-49-74-82l-291-127q-25-6-26-6-43 0-43 49z"/><glyph unicode="û" horiz-adv-x="1267" d="M0 956q0 66 88 66 20 0 60-4t61-4q18 0 63 6 31 4 35 4 63 0 64-78v-43l-2-133-7-152V485q0-178 29-256 47-129 225-129 88 0 156 40t94 106q33 80 33 303v246q-10 98-53 98-23 0-37-4h-25q-72 0-71 63 0 72 80 72 18 0 56-4t56-4q16 0 49 3t50 3q61 0 61-66 0-29-4-45-10-78-10-229V367q0-125 2-140 10-109 57-108 14 0 41 5t41 5q70 0 70-68 0-70-86-69-18 0-54 4-51 6-63 6-6 0-43-4-25-6-43-6-58 0-58 59v64Q806-35 594-35q-242 0-336 150-41 66-45 153-2 43-2 181v169q0 281-59 281-12 0-39-5t-41-5q-72 0-72 67zm262 236q0 20 43 51l258 182q20 14 41 15 18 0 39-15l258-182q14-10 28.5-20.5T944 1196v-4q0-35-41-35-19 0-72 25l-227 106-229-106q-53-25-72-25-41 0-41 35z"/><glyph unicode="ü" horiz-adv-x="1267" d="M0 956q0 66 88 66 20 0 60-4t61-4q18 0 63 6 31 4 35 4 63 0 64-78v-43l-2-133-7-152V485q0-178 29-256 47-129 225-129 88 0 156 40t94 106q33 80 33 303v246q-10 98-53 98-23 0-37-4h-25q-72 0-71 63 0 72 80 72 18 0 56-4t56-4q16 0 49 3t50 3q61 0 61-66 0-29-4-45-10-78-10-229V367q0-125 2-140 10-109 57-108 14 0 41 5t41 5q70 0 70-68 0-70-86-69-18 0-54 4-51 6-63 6-6 0-43-4-25-6-43-6-58 0-58 59v64Q806-35 594-35q-242 0-336 150-41 66-45 153-2 43-2 181v169q0 281-59 281-12 0-39-5t-41-5q-72 0-72 67zm309 328q0 47 34 81t81 34 81-34 34-81-34-81-81-34-81 34-34 81zm365 0q0 47 33.5 81t80.5 34 81-34 34-81-34-81-81-34-80.5 34-33.5 81z"/><glyph unicode="ÿ" horiz-adv-x="1230" d="M-53-199q0 63 36.5 103.5T80-55q47 0 77.5-28t30.5-69q0-66-59-84 31-45 117-45 109 0 195.5 81T528-18q0 51-55 190L248 741l-25 66q-35 92-80 92-12 0-43.5-6T57 887q-72 0-71 65 0 70 94 70 31 0 47-2l82-10h16q14-2 25-2 74 0 158 8 63 6 84 6 86 0 86-68t-78-67q-12 0-39 5t-39 5q-29 0-29-29 0-16 8-41l236-692 250 682q10 29 10 45 0 35-47 35-25 0-39-4-33-4-43-4-68 0-68 65 0 70 88 70 12 0 41-4l74-10q29-4 62-4 35 0 102.5 8t101.5 8q88 0 88-68 0-66-67-65-20 0-31 4-27 6-37 6-39 0-80-104L764 98q-92-231-174-336-139-178-348-178-125 0-210 63.5T-53-199zm393 1483q0 47 34 81t81 34 79.5-34 32.5-81-32.5-81-79.5-34-81 34-34 81zm365 0q0 47 33.5 81t80.5 34 80-34 33-81-34-81-79-34q-47 0-80.5 34t-33.5 81z"/><glyph unicode="Œ" horiz-adv-x="2125" d="M76 672q0 334 157.5 532.5T659 1403q244 0 406-186-4 16-12.5 43.5t-8.5 54.5q0 25 26 42t63 17q27 0 102.5-4t134.5-4h141l187 2q27 0 84 4t88 4q104 0 104-92 0-37-7-107.5t-7-107.5q0-33 5-95.5t5-94.5q0-86-72-86-51 0-65 45-8 25-8 92v108l2 25q2 33 2 53 0 86-62 109-53 20-258 20h-137q-96 0-127-25.5t-31-105.5V885q0-61 27-76 16-8 62-8h98q117 0 117 92 0 31-7 61-8 41-8 70 0 78 74 78t74-80q0-14-9-72-16-113-16-227 0-127 14-219 6-39 7-66 0-76-72-76-70 0-70 84 0 23 5.5 66t5.5 66q0 90-109 90h-104q-76 0-84-39-4-14-5-45V246q0-92 46-113 25-12 126-12h218q158 0 203.5 36t45.5 156q0 27-2 78t-2 76q0 106 74 106t74-84q0-39-6-115.5t-6-115.5q0-63 2-88l6-72V86q0-100-97-96l-98 4-139 4-148 6-143-4q-78-2-162-4-57-6-94-6-76 0-76 61 0 41 19 115-61-76-88-98Q848-38 655-39q-266 0-422.5 191.5T76 672zm182 18q0-276 108.5-433T666 100q186 0 288.5 155T1057 694q0 272-101.5 422T668 1266q-190 0-300-154T258 690z"/><glyph unicode="œ" horiz-adv-x="1826" d="M78 500q0 250 133 404.5T557 1059q154 0 260-82 66-51 113-148 119 229 387 230 203 0 321.5-130T1757 578q0-92-53-93h-655q-31 0-38-9t-7-46q0-137 91-233.5t218-96.5q88 0 168 52.5t96 121.5l14 60q12 47 68 47 78 0 78-82 0-92-90-190-132-144-355-144-131 0-219 51.5T913 186Q819-35 547-35q-217 0-343 143.5T78 500zm168 6q0-188 81-297t222-109q145 0 226 108.5T856 514q0 190-81 300T553 924 329 811t-83-305zm782 147q0-31 45-30h467q29 0 39 6t10 35q0 109-78.5 184.5T1319 924t-202-83.5-89-187.5z"/><glyph unicode="Ÿ" horiz-adv-x="1490" d="M-29 1300q0 74 82 74 33 0 82-8 98-16 184-16 63 0 191 18 43 6 74 6 84 0 84-71 0-70-101-70l-20 2h-51l-41 2q-25 2-25-16 0-8 2-11.5l10-17.5 314-533 317 533q10 16 10 33 0 18-26 18h-4l-37-2-53-6q-35-4-54-4-84 0-84 72t82 71q31 0 74-6 115-16 199-16 88 0 194 16 41 6 70 6 78 0 78-71 0-66-76-66-31 0-47 4-33 4-45 4-53 0-86-49l-31-47-403-633v-86q0-209 17-260t87-51q16 0 50 5t50 5q63 0 64-66 0-74-92-73h-13q-8 2-14 2L870 6q-63 8-125 8-66 0-124-8L516-8q-4 0-12-2h-15q-92 0-92 71 0 68 66 68 16 0 48-5t48-5q86 0 105 108 2 19 2 181v38q-2 33-2 56l-398 628q-39 61-49 72-31 31-76 31-25 0-37-2H86q-14-2-20-2-94 0-95 71zm459 332q0 55 39 93t94 38 93-37.5 38-93.5q0-55-39-93t-92-38q-55 0-94 38t-39 93zm371 0q0 53 38 92t93 39 93-37.5 38-93.5q0-55-39-93t-92-38q-55 0-93 38t-38 93z"/><glyph unicode="ˆ" horiz-adv-x="1007" d="M162 1192q0 20 43 51l258 182q25 14 41 15 18 0 39-15l258-182q14-10 33-22 10-10 10-25v-4q0-35-41-35-19 0-72 25l-227 106-230-106q-53-25-71-25-41 0-41 35z"/><glyph unicode="˜" horiz-adv-x="1005" d="M184 1217q0 70 60.5 121t138.5 51q49 0 137-29l76-25q37-12 63-12 47 0 82 33l29 26q6 10 23 11 29 0 28-31 0-63-61.5-113.5T621 1198q-47 0-129 27-115 37-148 37-59 0-88-37l-16-21q-14-18-27-18-29 0-29 31z"/><glyph horiz-adv-x="925"/><glyph horiz-adv-x="1851"/><glyph horiz-adv-x="925"/><glyph horiz-adv-x="1851"/><glyph horiz-adv-x="617"/><glyph horiz-adv-x="462"/><glyph horiz-adv-x="308"/><glyph horiz-adv-x="308"/><glyph horiz-adv-x="231"/><glyph horiz-adv-x="370"/><glyph horiz-adv-x="102"/><glyph unicode="‐" horiz-adv-x="632" d="M76 547q0 72 82 71h319q82 0 82-69 0-74-82-74H158q-82 0-82 72z"/><glyph unicode="‑" horiz-adv-x="632" d="M76 547q0 72 82 71h319q82 0 82-69 0-74-82-74H158q-82 0-82 72z"/><glyph unicode="‒" horiz-adv-x="632" d="M76 547q0 72 82 71h319q82 0 82-69 0-74-82-74H158q-82 0-82 72z"/><glyph unicode="–" horiz-adv-x="1024" d="M68 612v140h888V612H68z"/><glyph unicode="—" horiz-adv-x="1564" d="M74 547q0 72 82 71h1255q82 0 82-69 0-74-82-74H156q-82 0-82 72z"/><glyph unicode="‘" horiz-adv-x="522" d="M113 1038q0 168 129 336 49 63 82 64 41 0 41-41 0-16-23-45-59-74-94-166-12-33-12-53 0-33 38-35l41-2q43-2 74-39t31-84q0-59-40-97t-101-38q-72 0-119 56t-47 144z"/><glyph unicode="’" horiz-adv-x="524" d="M102 1303q0 57 41 96t103 39q70 0 116-56.5t46-144.5q0-170-127-336-49-63-82-63-41 0-41 41 0 14 24 45 39 51 72 118.5t33 100.5-39 35l-41 2q-41 2-73 37.5t-32 85.5z"/><glyph unicode="‚" horiz-adv-x="524" d="M102 90q0 57 41 96t101 39q72 0 118-56t46-144q0-168-127-336-47-63-82-64-41 0-41 41 0 14 24 45 53 68 92 166 13 33 13 53 0 33-39 35l-41 2q-41 2-73 39t-32 84z"/><glyph unicode="“" horiz-adv-x="894" d="M115 1038q0 164 129 336 47 63 82 64 39 0 39-41 0-16-23-45-41-51-73.5-118.5T236 1133t38-35l41-2q43-2 75-39t32-84q0-57-41-96t-102-39q-72 0-118 56t-46 144zm370 0q0 164 129 336 47 63 82 64 39 0 39-41 0-16-22-45-55-70-92-166-13-33-13-53 0-33 39-35l41-2q41-2 73-39t32-84q0-57-41-96t-103-39q-72 0-118 56t-46 144z"/><glyph unicode="”" horiz-adv-x="894" d="M102 1303q0 57 41 96t103 39q70 0 116-56.5t46-144.5q0-168-127-336-47-63-82-63-41 0-41 41 0 16 22 45 41 51 74 118.5t33 100.5-39 35l-41 2q-41 2-73 37.5t-32 85.5zm371 0q0 57 41 96t102 39q72 0 118-56.5t46-144.5q0-166-129-336-49-63-82-63-39 0-39 41 0 16 23 45 39 51 71.5 118.5T657 1143t-36 35l-41 2q-43 2-75 37.5t-32 85.5z"/><glyph unicode="„" horiz-adv-x="894" d="M102 90q0 57 41 96t101 39q72 0 118-56t46-144q0-168-127-336-47-63-82-64-41 0-41 41 0 16 22 45 41 51 74 118.5T287-70t-39 35l-41 2q-41 2-73 39t-32 84zm371 0q0 57 41 96t102 39q72 0 118-56t46-144q0-164-129-336-47-63-82-64-39 0-39 41 0 16 23 45 49 61 92 166 12 30 12 53 0 33-36 35l-41 2q-43 2-75 39t-32 84z"/><glyph unicode="•" horiz-adv-x="1366" d="M401 696q0 119 83 203t200 84q115 0 198-84t83-203-83-202.5T684 410q-117 0-200 83.5T401 696z"/><glyph unicode="…" horiz-adv-x="1675" d="M152 94q0 53 36.5 91t90.5 38q53 0 90-38t37-91-37-91-90-38-90 38-37 91zm559 0q0 53 36.5 91t90.5 38q53 0 90-38t37-91-37-91-90-38-90 38-37 91zm559 0q0 53 36.5 91t90.5 38q53 0 90-38t37-91-37-91-90-38-90 38-37 91z"/><glyph horiz-adv-x="370"/><glyph unicode="‹" horiz-adv-x="446" d="M88 547q0 6 6 18l203 324q12 20 31 20 27 0 26-28 0-19-4-31L246 547l108-322q6-18 6-22 0-31-28-31-20 0-33 21L92 532q-4 4-4 15z"/><glyph unicode="›" horiz-adv-x="448" d="M86 203q0 4 6 22l109 322L96 850q-4 12-4 31 0 29 29 28 16 0 29-20l202-324q8-12 8-18 0-8-6-15L147 193q-12-20-32-21-29 0-29 31z"/><glyph horiz-adv-x="462"/><glyph unicode="€" d="M18 569q0 63 62 64h96v35q0 61 2 90l-94-2q-66 0-66 59 0 66 62 66h4l106-4q84 535 537 534 215 0 336-160-4 8-4 45l-2 25q0 8-2 12v4q0 70 65 70 70 0 70-86 0-37-8-109-8-70-8-106 0-37 8-109 4-47 4-63 0-92-74-92-76 0-76 98 0 150-84 241t-225 91q-317 0-360-398l292 3q72 0 72-60 0-63-67-63h-7l-299 4V633l301-2q72 0 72-60 0-66-67-65h-7l-290 6Q406 92 741 92q141 0 226.5 79t97.5 226q8 94 78 95 84 0 84-95 0-188-136.5-315T719-45q-469 0-535 557l-100-2q-66 0-66 59z"/><glyph unicode="™" horiz-adv-x="1851" d="M41 1083q0 16 2 52 0 16 2 41 2 18 2 28 0 18-3 55t-3 56q0 55 51 55h29q25-2 45-2 6 0 94-4 55-2 131-2 70 0 121 2 154 6 150 6 63 0 63-53 0 2-4-45-6-72-6-78 0-18 4-57t4-58q0-53-51-53t-51 66q0 2 2 18v25l4 45q2 23 2 32 0 74-84 74h-33q-70 0-74-69l-4-82V745q0-80 49-79 4 0 13 2h12q14 4 33 4 43 0 43-45t-58-45q-12 0-16 2l-57 8q-14 2-72 2-61 0-76-2l-57-8q-6-2-17-2-57 0-57 45t43 45q18 0 31-4h14q8-2 12-2 49 0 50 79v465q0 76-76 76h-37q-76 0-76-76 0-16 2-36l4-44v-28q0-80-51-80-49 0-49 61zm721-454q0 43 43 43 16 0 33-4h12q8-2 12-2 49 0 49 79v80l2 103v96l-2 102v80q0 80-51 80h-10q-8-2-12-2-14-4-33-4-43 0-43 43 0 47 59 47h17l39-6q27-4 55-4 37 0 63 6 45 4 52 4 47 0 65-61l8-29 170-559 189 598q16 51 57 51h6q14 0 51-5t58-5q43 0 53 2l41 8h14q59 0 60-47 0-43-43-43-16 0-31 4-6 0-12 2h-13q-51 0-51-80V748q0-80 51-80 10 0 28.5 3t27.5 3q43 0 43-45 0-47-56-47-10 0-18 2l-57 6q-39 4-76 4-47 0-103-8-27-4-41-4-49 0-49 45t54 45h18l29-4q27 0 36 38.5t11 157.5q0 41 2 111l2 102v197l-211-649q-16-49-72-50-55 0-71 50l-207 651 6-528q0-76 39-76 16 0 35 2 4 2 14 2 51 0 51-47t-53-47q-12 0-25 2l-53 8q-12 2-68 2-57 0-69-2l-49-8q-4-2-15-2-61 0-61 47z"/><glyph unicode="◼" horiz-adv-x="1024" d="M0 0v1024h1024V0H0z"/></font>
</defs>
</svg>
